<?xml version="1.0" encoding="UTF-8"?>
<svg version="1.1" xmlns="http://www.w3.org/2000/svg" width="315" height="337">
<path d="M0 0 C0.495 1.485 0.495 1.485 1 3 C1.886875 3.103125 2.77375 3.20625 3.6875 3.3125 C10.83460739 4.79586191 16.44911708 9.68767651 20.5 15.625 C21.94991764 17.96004178 23.03243983 20.08888513 23.9765625 22.67578125 C25.45468444 26.0325849 27.74133924 26.50101605 31 28 C32.34033967 29.32628999 33.67274652 30.66061441 35 32 C36.75108125 33.33873873 38.52423049 34.64885765 40.3125 35.9375 C54.05506692 46.15969145 66.24618311 57.94493232 78.29272461 70.08691406 C80.71727876 72.53000645 83.15002345 74.96471985 85.58398438 77.3984375 C87.14370607 78.9630664 88.70296833 80.52815346 90.26171875 82.09375 C90.98147385 82.81461792 91.70122894 83.53548584 92.4427948 84.27819824 C95.23799619 87.09993562 97.87012004 89.83079224 100.29223633 92.98632812 C100.85579834 93.65083984 101.41936035 94.31535156 102 95 C105.04173894 95.16670273 105.04173894 95.16670273 108 95 C109.03367834 95.96514718 110.02910814 96.97171551 111 98 C112.42105616 98.94195723 113.86016334 99.85702617 115.3125 100.75 C122.9000759 105.78785478 126.34465955 110.77927325 129.140625 119.44921875 C130.53048853 124.06330892 130.53048853 124.06330892 134 127 C134.91652344 128.15435547 134.91652344 128.15435547 135.8515625 129.33203125 C141.06379906 135.80468138 148.47944682 140.41564963 155.1875 145.25 C155.75710449 145.66209717 156.32670898 146.07419434 156.91357422 146.4987793 C164.26172391 152.10629503 164.26172391 152.10629503 172.9375 153.75 C173.948125 153.5025 174.95875 153.255 176 153 C176.3403125 151.824375 176.3403125 151.824375 176.6875 150.625 C178 148 178 148 180.3125 146.75 C182.863449 146.03810726 185.40164372 145.50487325 188 145 C187.98839844 144.22688477 187.97679687 143.45376953 187.96484375 142.65722656 C187.89490858 134.30247107 188.36876801 126.07670827 189 117.75 C190.40579424 98.1824922 190.19111547 78.6055067 190 59 C189.01 59.33 188.02 59.66 187 60 C186.16958926 57.50876778 185.9461642 56.20457605 186.625 53.625 C187.14589521 49.97873354 185.70728429 48.22487033 184 45 C183.60923159 43.63495089 183.25583596 42.25873453 182.9375 40.875 C182.22181681 37.16389225 182.22181681 37.16389225 180.75 34.75 C180 33 180 33 180.75 30.9375 C181.81819335 29.28180031 182.90703248 27.63945127 184 26 C184.78380761 24.40213256 185.55337511 22.79724039 186.3125 21.1875 C191.07676825 11.70027219 197.22857563 6.60043293 207.08203125 2.81640625 C216.47225836 0.07995554 223.63829283 1.81914642 232.265625 6.1328125 C233.87039993 7.04308399 235.43929666 8.01607833 237 9 C237.99 9.33 238.98 9.66 240 10 C240.33 11.98 240.66 13.96 241 16 C242.32 16 243.64 16 245 16 C245 16.99 245 17.98 245 19 C245.66 19.66 246.32 20.32 247 21 C246.34 21 245.68 21 245 21 C245.33 21.556875 245.66 22.11375 246 22.6875 C247.1309601 25.30284522 247.15662974 27.1806646 247 30 C247.99 30 248.98 30 250 30 C250.25 36.625 250.25 36.625 248 40 C247.62875 41.794375 247.62875 41.794375 247.25 43.625 C245.29852282 51.80619281 239.97915998 57.48841821 233.5390625 62.58984375 C233.03117187 63.05519531 232.52328125 63.52054688 232 64 C232 64.66 232 65.32 232 66 C231.34 66 230.68 66 230 66 C230 69.63 230 73.26 230 77 C230.66 77 231.32 77 232 77 C231.99476318 77.73710205 231.98952637 78.4742041 231.98413086 79.23364258 C231.8993643 93.12570199 231.93010144 106.99038021 232.4375 120.875 C232.47673584 121.98979736 232.51597168 123.10459473 232.55639648 124.25317383 C232.77753999 130.15129703 232.77753999 130.15129703 233.52294922 135.99902344 C234.38776038 141.81550043 234.04552787 147.724653 233.94921875 153.5859375 C233.92991348 154.92851413 233.91086051 156.27109441 233.89204407 157.61367798 C233.85114533 160.43295415 233.80599869 163.25212421 233.75805664 166.07128906 C233.71020419 168.90815232 233.6684319 171.74498514 233.63305664 174.58203125 C233.40991101 192.45311444 232.72966055 210.19903116 231 228 C231.62632324 228.2889917 232.25264648 228.5779834 232.89794922 228.87573242 C235.53119604 230.28410659 236.51979626 231.81224809 238.125 234.3125 C238.62257813 235.07175781 239.12015625 235.83101562 239.6328125 236.61328125 C244.09136815 244.39664555 244.28406851 253.24860334 242.34765625 261.921875 C239.60447644 269.50388272 234.72340751 275.26000529 228.125 279.8125 C224.76927123 281.6991081 224.76927123 281.6991081 224 285 C223.01 284.67 222.02 284.34 221 284 C220.67 284.33 220.34 284.66 220 285 C217.05291431 285.10050242 214.13436198 285.13869572 211.1875 285.125 C210.36701172 285.12886719 209.54652344 285.13273437 208.70117188 285.13671875 C207.90646484 285.13542969 207.11175781 285.13414062 206.29296875 285.1328125 C205.5661792 285.13168457 204.83938965 285.13055664 204.09057617 285.12939453 C199.91441853 284.87091461 197.01494398 283.81759376 193.75 281.1875 C188.03097332 276.63827423 182.69035029 273.95473205 175.90625 271.234375 C173.4837869 270.20547938 171.30760186 269.10887744 169.0625 267.75 C166.24053475 266.13744843 164.1959026 265.38738213 161 265 C161 264.34 161 263.68 161 263 C158.99500982 261.51960822 158.99500982 261.51960822 156.375 260 C143.70414529 252.151514 131.84985299 243.0228331 120 234 C119.31679687 233.48131348 118.63359375 232.96262695 117.9296875 232.42822266 C115.94707088 230.91817364 113.97224077 229.39856614 112 227.875 C111.39414063 227.41359619 110.78828125 226.95219238 110.1640625 226.47680664 C108.73790771 225.36513405 107.36294822 224.18832048 106 223 C106 222.34 106 221.68 106 221 C104.68 221 103.36 221 102 221 C100.76518131 219.58877864 99.53959789 218.16654004 98.39697266 216.6796875 C96.0318589 213.8359296 93.12225924 211.72555894 90.1875 209.5 C89.57310059 209.0258667 88.95870117 208.5517334 88.32568359 208.06323242 C86.55622183 206.70104993 84.7798694 205.34854338 83 204 C82.11183594 203.32582031 81.22367188 202.65164062 80.30859375 201.95703125 C78.5456138 200.62927712 76.77411191 199.31284281 75 198 C74.67 198.99 74.34 199.98 74 201 C73.938125 200.236875 73.87625 199.47375 73.8125 198.6875 C72.7452344 195.15731377 71.1524958 194.69749774 68 193 C68 192.34 68 191.68 68 191 C66.329375 190.566875 66.329375 190.566875 64.625 190.125 C61 189 61 189 59 187 C52.14883297 181.27512649 52.14883297 181.27512649 44 178 C43.59523438 177.55914062 43.19046875 177.11828125 42.7734375 176.6640625 C36.20984154 170.50526982 25.19608243 167.35835051 16.375 166.75 C12.9381914 167.00457841 10.20013111 167.75116835 7 169 C5.80471209 174.63815054 5.8556539 180.15722289 5.8671875 185.890625 C5.86623077 186.94924744 5.86527405 188.00786987 5.86428833 189.09857178 C5.86360876 191.34110575 5.86544748 193.5836417 5.86962891 195.82617188 C5.87491633 199.19666181 5.8697097 202.56701455 5.86328125 205.9375 C5.85944656 215.70915988 5.90890191 225.46987244 6.41015625 235.23046875 C6.44418549 235.93911072 6.47821472 236.64775269 6.51327515 237.37786865 C6.81294647 242.37615733 7.88182698 246.86288668 9.35546875 251.625 C11.53615876 259.66051227 9.76898289 268.00340588 5.78125 275.19921875 C1.39465568 281.59633547 -4.69291815 286.27367235 -12.1875 288.4375 C-15.84365849 288.97693322 -18.43698076 288.89075481 -22 288 C-22 288.66 -22 289.32 -22 290 C-24.3125 290.1875 -24.3125 290.1875 -27 290 C-28.00976901 289.00986539 -29.00854133 288.00846899 -30 287 C-31.3770443 286.25579854 -32.77520013 285.54990436 -34.1875 284.875 C-41.76849415 280.76914346 -47.45102208 274.24669326 -50 266 C-51.79400499 257.58197657 -50.42007377 249.48897715 -46.33984375 241.8828125 C-44.26039843 238.9606765 -41.67991983 236.78742082 -38.90234375 234.54296875 C-37.96068359 233.77919922 -37.96068359 233.77919922 -37 233 C-36.45939941 232.58919189 -35.91879883 232.17838379 -35.36181641 231.75512695 C-33.36508733 229.18171618 -33.91723571 227.57535087 -34.30859375 224.375 C-34.95599928 217.59946113 -35.0664077 210.92982407 -35.03515625 204.125 C-35.03964735 201.96484047 -35.04552822 199.80468343 -35.05273438 197.64453125 C-35.06334858 194.3017957 -35.06206037 190.96121779 -35.02416992 187.61865234 C-34.99111436 184.34876743 -35.00856743 181.08237411 -35.03515625 177.8125 C-35.01260269 176.81557129 -34.99004913 175.81864258 -34.96681213 174.79150391 C-35.02641422 169.43689021 -35.02641422 169.43689021 -37.77511597 165.03271484 C-40.39588382 163.03577008 -43.05910051 161.47044974 -46 160 C-46.36355633 158.33966399 -46.69196153 156.6715266 -47 155 C-47.65789642 153.40413879 -48.34647343 151.82063893 -49.0625 150.25 C-52.34465804 142.11072896 -51.55663925 135.73534813 -48.3203125 127.64453125 C-44.57448034 120.14178458 -38.76378455 115.12958757 -31 112 C-30.01 112 -29.02 112 -28 112 C-28.16226074 111.00572998 -28.32452148 110.01145996 -28.49169922 108.98706055 C-29.04907444 105.05963984 -29.15664986 101.16939141 -29.1328125 97.20703125 C-29.13056671 96.47523148 -29.12832092 95.7434317 -29.12600708 94.98945618 C-29.04738743 85.74760028 -28.37111477 76.5362866 -27.70361328 67.3215332 C-27.54004246 65.03130459 -27.39022572 62.74049615 -27.2421875 60.44921875 C-27.16108231 59.41180794 -27.16108231 59.41180794 -27.07833862 58.35343933 C-26.84860093 54.66350436 -26.92996809 52.12894433 -29 49 C-29.66 49 -30.32 49 -31 49 C-35.44163947 39.7677351 -37.70113118 32.4839077 -34.9375 22.4375 C-31.38333714 13.12427696 -24.91953607 7.183367 -16 3 C-12.58008414 1.83205327 -9.34566143 1.89841672 -5.75 1.9375 C-4.13351563 1.95103516 -4.13351563 1.95103516 -2.484375 1.96484375 C-1.66453125 1.97644531 -0.8446875 1.98804687 0 2 C0 1.34 0 0.68 0 0 Z M25 43 C26.29491957 47.84002726 28.11494385 50.64196371 31.5625 54.25 C35.93220339 58.86440678 35.93220339 58.86440678 37 61 C37.66 61 38.32 61 39 61 C39.27473145 61.59329102 39.54946289 62.18658203 39.83251953 62.79785156 C41.65970366 66.24435948 44.25237098 68.8883784 46.875 71.75 C47.40480469 72.35199219 47.93460938 72.95398438 48.48046875 73.57421875 C49.90286622 75.13073806 51.44653196 76.57427072 53 78 C54.32 78 55.64 78 57 78 C56.73445313 78.54527344 56.46890625 79.09054688 56.1953125 79.65234375 C55.71728542 82.2349271 55.71728542 82.2349271 57.9921875 84.62890625 C58.94179417 85.61777793 59.90359697 86.59503105 60.875 87.5625 C61.89184907 88.61866745 62.90612435 89.67731819 63.91796875 90.73828125 C64.43278809 91.27533691 64.94760742 91.81239258 65.47802734 92.36572266 C69.21508274 96.37853125 72.58360449 100.71474341 76 105 C78.03833424 103.7260411 80.03852126 102.38938077 82 101 C82 100.34 82 99.68 82 99 C83.98 98.505 83.98 98.505 86 98 C83.45395403 94.47618313 83.45395403 94.47618313 80 92 C78.875 89.9375 78.875 89.9375 78 88 C77.34 88 76.68 88 76 88 C75.7525 87.38125 75.505 86.7625 75.25 86.125 C73.76898598 83.60727617 72.74822309 82.91607436 70 82 C69.01 82.33 68.02 82.66 67 83 C67.28488281 82.30390625 67.56976563 81.6078125 67.86328125 80.890625 C68.3318999 77.72126159 68.3318999 77.72126159 65.54296875 74.921875 C64.43948418 73.84893212 63.32021021 72.79204232 62.1875 71.75 C61.62740234 71.20859375 61.06730469 70.6671875 60.49023438 70.109375 C57.49820454 67.21117204 57.49820454 67.21117204 54 65 C52.87775649 63.87186545 51.77714899 62.72214785 50.6875 61.5625 C47.13574784 57.95880265 43.38500084 54.81775082 39.375 51.75 C38.83705811 51.3382251 38.29911621 50.9264502 37.74487305 50.50219727 C31.89536291 45.39813406 31.89536291 45.39813406 25 43 Z M8 60 C7.75130853 62.73560615 7.56966989 65.44538266 7.4375 68.1875 C7.3957666 69.02885498 7.3540332 69.87020996 7.31103516 70.73706055 C5.48733836 94.65224027 5.48733836 94.65224027 9 118 C15.27589854 119.32759392 19.82763494 118.55420956 25.97265625 116.7890625 C32.57219172 115.06892551 38.97853845 114.83910433 45.75 114.875 C46.62946289 114.87693359 47.50892578 114.87886719 48.41503906 114.88085938 C54.64899241 114.92225043 60.81133816 115.205126 67 116 C63.46296547 111.21102542 59.82158066 106.56725494 56 102 C54.23817385 99.72397572 52.48716404 97.4403776 50.74609375 95.1484375 C49.00689674 92.93264383 49.00689674 92.93264383 46.84765625 90.8515625 C45 89 45 89 44 87 C43.34 87 42.68 87 42 87 C41.78859375 86.47019531 41.5771875 85.94039062 41.359375 85.39453125 C39.46500845 82.05761546 36.87881099 79.44856819 34.25 76.6875 C30.86846166 73.0986103 27.54188385 69.52278942 24.4375 65.6875 C23.633125 64.800625 22.82875 63.91375 22 63 C21.01 63 20.02 63 19 63 C18.67 62.34 18.34 61.68 18 61 C18.66 60.67 19.32 60.34 20 60 C13.66966067 58.27615286 13.66966067 58.27615286 8 60 Z M-13 61 C-13.28941355 65.76454757 -13.57402486 70.52935101 -13.85449219 75.29443359 C-13.9502288 76.91006916 -14.04719999 78.52563213 -14.14550781 80.14111328 C-15.82892093 96.2217307 -15.82892093 96.2217307 -14 112 C-11.36 112.33 -8.72 112.66 -6 113 C-5.97309896 110.20826945 -5.95320947 107.41679652 -5.9375 104.625 C-5.92912109 103.8309375 -5.92074219 103.036875 -5.91210938 102.21875 C-5.76959849 97.97607778 -5.76959849 97.97607778 -7 94 C-6.835 93.154375 -6.67 92.30875 -6.5 91.4375 C-5.96048465 87.72833199 -6.28503509 84.7268714 -6.84375 81.05078125 C-7 79 -7 79 -6 76 C-5.8455467 71.82976082 -6.01611229 68.05853682 -7 64 C-8.32 64 -9.64 64 -11 64 C-11.66 63.01 -12.32 62.02 -13 61 Z M208.875 68.4375 C206.956875 68.7159375 206.956875 68.7159375 205 69 C204.60381198 76.78994613 204.2123503 84.58011514 203.82654572 92.37058163 C203.64716527 95.98992777 203.46629585 99.60918535 203.28173828 103.22827148 C202.81062731 112.48388968 202.37675261 121.73996379 202 131 C201.95746094 131.99235657 201.91492188 132.98471313 201.87109375 134.00714111 C201.77537378 136.44373512 201.70765815 138.87853774 201.65625 141.31640625 C201.60694336 143.19694702 201.60694336 143.19694702 201.55664062 145.11547852 C201.72627433 148.09845215 201.72627433 148.09845215 203.89648438 149.91772461 C205.90213459 151.15250141 205.90213459 151.15250141 208 151 C212.13742918 159.19997276 215.37239966 165.70810134 213 175 C211.1160386 180.27324489 208.50053574 184.57567933 204 188 C198.06759534 190.63320898 192.29202659 191.99145696 186 190 C180.05124404 187.523818 175.9535717 184.9071434 173 179 C172.62326275 177.47959608 172.24837089 175.95873411 171.875 174.4375 C171.00900879 171.7035068 170.51742756 170.36427775 168.15234375 168.69921875 C166.49343052 167.93761418 164.82120282 167.20471318 163.140625 166.4921875 C159.16790213 164.60465002 155.67033468 162.25276278 152.0625 159.75 C151.37615479 159.27457764 150.68980957 158.79915527 149.98266602 158.30932617 C144.85142822 154.70192897 139.99449001 150.86483381 135.234375 146.77734375 C133.19156645 145.15238241 131.43877552 143.92235741 129 143 C128.01 143.495 128.01 143.495 127 144 C126.67 143.34 126.34 142.68 126 142 C123.65712582 144.67247634 123.65712582 144.67247634 123 148 C122.01 148.495 122.01 148.495 121 149 C121.63615234 149.81791016 121.63615234 149.81791016 122.28515625 150.65234375 C122.87167969 151.40644531 123.45820313 152.16054687 124.0625 152.9375 C125.03123047 154.17886719 125.03123047 154.17886719 126.01953125 155.4453125 C127.23633355 157.01491547 128.44419832 158.59155767 129.63671875 160.1796875 C133.42433418 165.18704349 137.52884582 169.82312312 141.80712891 174.41064453 C144.88898191 177.7328884 147.7923053 181.14663163 150.625 184.6875 C154.13539757 189.0504227 157.88226088 192.98983172 161.890625 196.89453125 C163.82145804 198.82178867 165.60672813 200.79938564 167.375 202.875 C170.39251476 206.38241715 173.56334776 209.70863727 176.8125 213 C177.29315918 213.4935498 177.77381836 213.98709961 178.26904297 214.49560547 C179.47381402 215.70379795 180.73313221 216.85708776 182 218 C182.66 218 183.32 218 184 218 C185 220 186 222 187 224 C190.93899677 222.73309158 190.93899677 222.73309158 194.79296875 221.234375 C199.72123931 219.16145295 204.25209009 218.52667449 209.58203125 218.2109375 C212.14128569 218.08211792 212.14128569 218.08211792 215 217 C215.33 217.66 215.66 218.32 216 219 C218.35613499 201.93546423 218.3104264 184.88060661 218.26074219 167.69384766 C218.24917237 163.63201551 218.25604576 159.57044268 218.26788712 155.50861931 C218.27508833 152.36030081 218.27282889 149.21204482 218.26763153 146.06372452 C218.26629924 144.56377252 218.26792802 143.06381482 218.27259064 141.56386948 C218.27764623 139.48757319 218.269968 137.4117128 218.25878906 135.33544922 C218.25719788 134.15667206 218.25560669 132.9778949 218.25396729 131.76339722 C218.2838998 128.85761573 218.2838998 128.85761573 216 127 C216.33 126.67 216.66 126.34 217 126 C217.10023458 124.06849858 217.13081373 122.1333182 217.1328125 120.19921875 C217.13410156 118.99330078 217.13539063 117.78738281 217.13671875 116.54492188 C217.13285156 115.27197266 217.12898438 113.99902344 217.125 112.6875 C217.12886719 111.45708984 217.13273437 110.22667969 217.13671875 108.95898438 C217.60227502 95.07568485 217.60227502 95.07568485 214 82 C214.33 81.34 214.66 80.68 215 80 C214.01 79.67 213.02 79.34 212 79 C212.99 79 213.98 79 215 79 C215 75.7 215 72.4 215 69 C212.57869669 67.78934835 211.51706341 68.05397467 208.875 68.4375 Z M19 134 C18.67 134.99 18.34 135.98 18 137 C17.34 136.67 16.68 136.34 16 136 C13.03268602 137.83656989 13.03268602 137.83656989 11 140 C10.75787127 141.98128508 10.75787127 141.98128508 10.875 144.125 C10.91625 145.40375 10.9575 146.6825 11 148 C14.27050067 148.55837816 17.5148965 149.05908648 20.8125 149.4375 C21.864375 149.623125 22.91625 149.80875 24 150 C24.33 150.66 24.66 151.32 25 152 C25.99 152.33 26.98 152.66 28 153 C44.97148764 160.37008826 60.60763047 169.09199478 75.15234375 180.54931641 C76.92258302 181.93921621 78.70706916 183.30751641 80.5 184.66796875 C86.42464622 189.16755802 92.2440285 193.78235684 97.984375 198.515625 C133.87236587 230.40245007 133.87236587 230.40245007 175 254 C174.95875 253.319375 174.9175 252.63875 174.875 251.9375 C175.02592468 248.39076993 176.00256807 245.40300307 177 242 C177.36950465 239.67212073 177.71352467 237.33954855 178 235 C177.34 235 176.68 235 176 235 C175.7421875 234.41734375 175.484375 233.8346875 175.21875 233.234375 C173.90165983 230.8197097 172.44911616 229.18259823 170.5 227.25 C169.8915625 226.63640625 169.283125 226.0228125 168.65625 225.390625 C167.10515723 223.78565912 167.10515723 223.78565912 165 224 C165 223.01 165 222.02 165 221 C164.34 221 163.68 221 163 221 C163 220.34 163 219.68 163 219 C161.68 218.67 160.36 218.34 159 218 C159.33 217.34 159.66 216.68 160 216 C159.34 216 158.68 216 158 216 C157.60953491 215.12516968 157.60953491 215.12516968 157.21118164 214.23266602 C155.91894468 211.85058437 154.50492346 210.21961021 152.62109375 208.27734375 C151.61695435 207.23066528 151.61695435 207.23066528 150.5925293 206.1628418 C149.88136963 205.428479 149.17020996 204.69411621 148.4375 203.9375 C143.07739542 198.33038052 137.97103549 192.68953892 133.14453125 186.6171875 C129.79158194 182.52524572 126.17982421 178.68039311 122.5859375 174.80078125 C114.54353378 166.090202 114.54353378 166.090202 111.5 161.96875 C109.48186687 159.25317972 109.48186687 159.25317972 107 157 C104.67888075 157.0103975 104.67888075 157.0103975 102.125 157.5625 C93.68897212 158.56811922 85.60529095 156.0925947 78.5625 151.375 C73.13793741 146.85453117 69.79481912 140.56977732 67.625 133.9375 C66.37026758 130.87588126 66.37026758 130.87588126 64.078125 130.38671875 C62.06216156 130.14723373 60.02908289 130.06545429 58 130 C57.505 129.505 57.505 129.505 57 129 C43.94469406 127.85521326 30.89932066 128.05033967 19 134 Z M-16.6875 171.4375 C-17.49574219 171.53933594 -18.30398437 171.64117187 -19.13671875 171.74609375 C-20.05904297 171.87177734 -20.05904297 171.87177734 -21 172 C-21.26751035 191.46652217 -20.67471627 210.5912346 -19 230 C-15.37 230.66 -11.74 231.32 -8 232 C-7.79763749 211.98859596 -8.41513943 192.00036491 -9 172 C-12.09478879 170.96840374 -13.52631393 171.02517138 -16.6875 171.4375 Z " fill="#BC75EB" transform="translate(58,24)"/>
<path d="M0 0 C0.99 0.33 1.98 0.66 3 1 C3.33 2.98 3.66 4.96 4 7 C5.32 7 6.64 7 8 7 C8 7.99 8 8.98 8 10 C8.99 10.99 8.99 10.99 10 12 C9.34 12 8.68 12 8 12 C8.33 12.556875 8.66 13.11375 9 13.6875 C10.1309601 16.30284522 10.15662974 18.1806646 10 21 C10.99 21 11.98 21 13 21 C13.25 27.625 13.25 27.625 11 31 C10.62875 32.794375 10.62875 32.794375 10.25 34.625 C8.29852282 42.80619281 2.97915998 48.48841821 -3.4609375 53.58984375 C-3.96882812 54.05519531 -4.47671875 54.52054688 -5 55 C-5 55.66 -5 56.32 -5 57 C-5.66 57 -6.32 57 -7 57 C-7 60.63 -7 64.26 -7 68 C-6.34 68 -5.68 68 -5 68 C-5.00523682 68.73710205 -5.01047363 69.4742041 -5.01586914 70.23364258 C-5.1006357 84.12570199 -5.06989856 97.99038021 -4.5625 111.875 C-4.52326416 112.98979736 -4.48402832 114.10459473 -4.44360352 115.25317383 C-4.22246001 121.15129703 -4.22246001 121.15129703 -3.47705078 126.99902344 C-2.61223962 132.81550043 -2.95447213 138.724653 -3.05078125 144.5859375 C-3.07008652 145.92851413 -3.08913949 147.27109441 -3.10795593 148.61367798 C-3.14885467 151.43295415 -3.19400131 154.25212421 -3.24194336 157.07128906 C-3.28979581 159.90815232 -3.3315681 162.74498514 -3.36694336 165.58203125 C-3.59008899 183.45311444 -4.27033945 201.19903116 -6 219 C-5.37367676 219.2889917 -4.74735352 219.5779834 -4.10205078 219.87573242 C-1.46880396 221.28410659 -0.48020374 222.81224809 1.125 225.3125 C1.62257813 226.07175781 2.12015625 226.83101562 2.6328125 227.61328125 C7.09136815 235.39664555 7.28406851 244.24860334 5.34765625 252.921875 C2.60447644 260.50388272 -2.27659249 266.26000529 -8.875 270.8125 C-12.23072877 272.6991081 -12.23072877 272.6991081 -13 276 C-13.99 275.67 -14.98 275.34 -16 275 C-16.33 275.33 -16.66 275.66 -17 276 C-18.34267413 276.08631874 -19.68974322 276.10706473 -21.03515625 276.09765625 C-21.84404297 276.09443359 -22.65292969 276.09121094 -23.48632812 276.08789062 C-24.33646484 276.07951172 -25.18660156 276.07113281 -26.0625 276.0625 C-26.91650391 276.05798828 -27.77050781 276.05347656 -28.65039062 276.04882812 C-30.76695663 276.03700373 -32.88348685 276.01906769 -35 276 C-34.67 275.01 -34.34 274.02 -34 273 C-34.8765625 272.896875 -35.753125 272.79375 -36.65625 272.6875 C-44.06322199 271.16457118 -50.36805716 266.5474826 -54.5625 260.3125 C-55.41057036 258.89569403 -56.22617093 257.45868128 -57 256 C-57.36738281 255.30777344 -57.73476562 254.61554688 -58.11328125 253.90234375 C-60.44574593 248.89833363 -60.09297894 243.39277876 -60 238 C-60.66 237.67 -61.32 237.34 -62 237 C-61.01 234.03 -60.02 231.06 -59 228 C-59.99 227.67 -60.98 227.34 -62 227 C-62 226.01 -62 225.02 -62 224 C-63.69180603 221.90517774 -63.69180603 221.90517774 -65.875 219.875 C-66.95394531 218.81925781 -66.95394531 218.81925781 -68.0546875 217.7421875 C-69.88833247 215.94601284 -69.88833247 215.94601284 -72 215 C-72 214.01 -72 213.02 -72 212 C-72.66 212 -73.32 212 -74 212 C-74 211.34 -74 210.68 -74 210 C-74.78375 209.938125 -75.5675 209.87625 -76.375 209.8125 C-77.24125 209.544375 -78.1075 209.27625 -79 209 C-79.68346682 207.34015202 -80.34588315 205.67163195 -81 204 C-82.60757833 202.18982276 -84.33288415 200.54841084 -86.08203125 198.875 C-88.58527928 196.42783289 -90.8413598 193.8069038 -93.125 191.15625 C-95.17359094 188.80037042 -97.27203002 186.4949254 -99.375 184.1875 C-102.48528851 180.74621795 -105.46478312 177.23678702 -108.375 173.625 C-111.78826003 169.41711858 -115.30284292 165.32887361 -118.9375 161.3125 C-119.4104248 160.78285645 -119.88334961 160.25321289 -120.37060547 159.70751953 C-121.53801045 158.43155818 -122.76450558 157.21015094 -124 156 C-124.66 156 -125.32 156 -126 156 C-126.103125 155.401875 -126.20625 154.80375 -126.3125 154.1875 C-127.1251879 151.60167486 -127.8411805 150.62749142 -130 149 C-132.32111925 149.0103975 -132.32111925 149.0103975 -134.875 149.5625 C-143.325894 150.56989134 -151.42258975 148.10512953 -158.4375 143.3125 C-161.99431559 140.37229938 -164.38611669 136.87419941 -166.7734375 132.953125 C-167.97890107 130.87259242 -167.97890107 130.87259242 -170 129 C-170.33 129 -170.66 129 -171 129 C-171 126.69 -171 124.38 -171 122 C-171.99 121.67 -172.98 121.34 -174 121 C-172.68 121 -171.36 121 -170 121 C-169.67 116.71 -169.34 112.42 -169 108 C-169.99 107.505 -169.99 107.505 -171 107 C-172.06282189 105.74265633 -173.07855594 104.44498392 -174.0625 103.125 C-174.58972656 102.42632812 -175.11695313 101.72765625 -175.66015625 101.0078125 C-177 99 -177 99 -178 96 C-178.99 95.67 -179.98 95.34 -181 95 C-182.3726682 93.02678947 -183.70427617 91.02456848 -185 89 C-185.5775 88.4225 -186.155 87.845 -186.75 87.25 C-187.1625 86.8375 -187.575 86.425 -188 86 C-188 85.34 -188 84.68 -188 84 C-189.485 83.505 -189.485 83.505 -191 83 C-192.1875 80.4375 -192.1875 80.4375 -193 78 C-193.66 78 -194.32 78 -195 78 C-196.62109375 76.4609375 -196.62109375 76.4609375 -198.4375 74.375 C-199.03433594 73.70210938 -199.63117188 73.02921875 -200.24609375 72.3359375 C-202 70 -202 70 -203.37890625 67.109375 C-205.29294923 63.43810219 -207.64683715 60.83411585 -210.5 57.875 C-218.84078965 49.09172815 -218.84078965 49.09172815 -219.4375 45 C-218.90355093 41.33863497 -217.76653412 40.34736228 -215 38 C-214.67 37.34 -214.34 36.68 -214 36 C-213.49210937 36.59167969 -212.98421875 37.18335938 -212.4609375 37.79296875 C-207.78791385 43.17841433 -207.78791385 43.17841433 -202.5 47.9375 C-201.675 48.618125 -200.85 49.29875 -200 50 C-200 50.66 -200 51.32 -200 52 C-199.34 52 -198.68 52 -198 52 C-196.52736092 53.68175383 -195.12126535 55.42211247 -193.75 57.1875 C-187.99471816 64.54984676 -187.99471816 64.54984676 -180 69 C-179.92910156 69.71800781 -179.85820312 70.43601562 -179.78515625 71.17578125 C-178.77299411 74.81654358 -177.05675802 76.4802669 -174.4375 79.1875 C-169.65992652 84.24691595 -165.27014223 89.50129729 -161 95 C-157.37206002 93.13433512 -157.37206002 93.13433512 -155 90 C-148.03362648 86.32112859 -138.38936692 87.1469619 -130.82421875 88.6171875 C-121.9072378 91.46759442 -115.29604566 96.92794583 -111 105.25 C-107.20867716 113.51719008 -107.59205068 121.18968246 -108.87890625 130.0546875 C-109.13547014 132.21785183 -109.13547014 132.21785183 -108 135 C-108.99 134.67 -109.98 134.34 -111 134 C-112.32 135.98 -113.64 137.96 -115 140 C-114.55527344 140.41636719 -114.11054688 140.83273438 -113.65234375 141.26171875 C-111.9784266 143.02269543 -110.83147913 144.74497325 -109.5625 146.8125 C-102.74772069 157.20335163 -93.85552446 166.25070974 -85.4375 175.34765625 C-83.48256122 177.47490534 -81.57117955 179.62272252 -79.6875 181.8125 C-76.21588787 185.81368009 -72.61073299 189.68727905 -69 193.5625 C-68.41822998 194.18809814 -67.83645996 194.81369629 -67.23706055 195.45825195 C-62.76148403 200.24582931 -58.20237125 204.94814375 -53.45727539 209.47021484 C-52.27058709 210.61224395 -51.12983208 211.80169325 -50 213 C-50 213.66 -50 214.32 -50 215 C-48.98292969 214.49339844 -48.98292969 214.49339844 -47.9453125 213.9765625 C-32.58515485 206.61560052 -32.58515485 206.61560052 -25 209 C-24.67 208.34 -24.34 207.68 -24 207 C-23.34 207.33 -22.68 207.66 -22 208 C-20.81948476 204.15426081 -20.66341708 200.25308366 -20.44799805 196.26318359 C-20.40595843 195.51135992 -20.36391882 194.75953625 -20.32060528 193.98493004 C-19.91654759 186.2537818 -19.83612153 178.52949562 -19.83203125 170.7890625 C-19.82880483 169.31838959 -19.82543981 167.84771698 -19.82194519 166.37704468 C-19.81603795 163.3369675 -19.81409726 160.29691843 -19.81469727 157.25683594 C-19.81480027 153.36206193 -19.80097113 149.46746462 -19.78392506 145.57273293 C-19.77283614 142.55477053 -19.77077683 139.536852 -19.77130699 136.51887131 C-19.77012902 135.08114367 -19.76571748 133.64341482 -19.75797462 132.20570755 C-19.74820669 130.21089273 -19.75230872 128.21602444 -19.75708008 126.22119141 C-19.75565506 125.08888092 -19.75423004 123.95657043 -19.75276184 122.78994751 C-19.79410308 119.78983283 -19.79410308 119.78983283 -22 117 C-21.34 117 -20.68 117 -20 117 C-20.1409147 112.58316237 -20.28865159 108.16657682 -20.4375 103.75 C-20.47681641 102.51507813 -20.51613281 101.28015625 -20.55664062 100.0078125 C-20.75843646 94.10916491 -21.00298119 88.21650278 -21.41015625 82.328125 C-21.47468994 81.39387695 -21.53922363 80.45962891 -21.60571289 79.49707031 C-22.00558372 76.96463762 -22.7244342 75.20774735 -24 73 C-23.67 72.67 -23.34 72.34 -23 72 C-23.99 71.34 -24.98 70.68 -26 70 C-25.01 69.34 -24.02 68.68 -23 68 C-22.63702064 66.02252878 -22.63702064 66.02252878 -22.8125 63.875 C-22.874375 62.59625 -22.93625 61.3175 -23 60 C-25.97 60 -28.94 60 -32 60 C-32 58.68 -32 57.36 -32 56 C-32.845625 55.773125 -33.69125 55.54625 -34.5625 55.3125 C-38 54 -38 54 -45 49 C-45 56.92 -45 64.84 -45 73 C-45.33 73 -45.66 73 -46 73 C-46.33 65.41 -46.66 57.82 -47 50 C-47.99 50.33 -48.98 50.66 -50 51 C-50.83041074 48.50876778 -51.0538358 47.20457605 -50.375 44.625 C-49.85410479 40.97873354 -51.29271571 39.22487033 -53 36 C-53.39076841 34.63495089 -53.74416404 33.25873453 -54.0625 31.875 C-54.77818319 28.16389225 -54.77818319 28.16389225 -56.25 25.75 C-57 24 -57 24 -56.25 21.9375 C-55.18180665 20.28180031 -54.09296752 18.63945127 -53 17 C-52.21619239 15.40213256 -51.44662489 13.79724039 -50.6875 12.1875 C-45.93761691 2.72891778 -39.83552215 -2.13532059 -30.17578125 -6.18359375 C-19.34139095 -9.66969263 -9.26689964 -5.97200199 0 0 Z " fill="#E49DFA" transform="translate(295,33)"/>
<path d="M0 0 C4.29452936 -0.19974555 7.06315038 0.38488221 11 2 C13.70886941 2.16798262 13.70886941 2.16798262 16 2 C16 2.66 16 3.32 16 4 C16.51175781 4.09410156 17.02351563 4.18820313 17.55078125 4.28515625 C20.95515888 5.27877843 24.03211549 6.84640177 27.1875 8.4375 C27.8872998 8.79021973 28.58709961 9.14293945 29.30810547 9.50634766 C51.13749302 20.66617909 70.14980945 35.02576641 89.01953125 50.55078125 C124.82067506 81.52616822 124.82067506 81.52616822 165 106 C165 104.35 165 102.7 165 101 C165.99 100.67 166.98 100.34 168 100 C168.06316406 100.87140625 168.12632812 101.7428125 168.19140625 102.640625 C169.23160891 112.7579646 171.59077087 121.5236669 179.6953125 128.23046875 C184.3044228 131.27599804 188.71695901 133.37086842 194 135 C192 137 192 137 189.375 137.125 C188.59125 137.08375 187.8075 137.0425 187 137 C187 136.34 187 135.68 187 135 C180.83394565 130.1812528 173.97213752 126.96749051 166.73046875 124.12890625 C164.35838318 123.14817273 162.25285232 122.07561453 160.0625 120.75 C157.24053475 119.13744843 155.1959026 118.38738213 152 118 C152 117.34 152 116.68 152 116 C149.99500982 114.51960822 149.99500982 114.51960822 147.375 113 C134.70414529 105.151514 122.84985299 96.0228331 111 87 C110.31679687 86.48131348 109.63359375 85.96262695 108.9296875 85.42822266 C106.94707088 83.91817364 104.97224077 82.39856614 103 80.875 C102.39414063 80.41359619 101.78828125 79.95219238 101.1640625 79.47680664 C99.73790771 78.36513405 98.36294822 77.18832048 97 76 C97 75.34 97 74.68 97 74 C95.68 74 94.36 74 93 74 C91.76518131 72.58877864 90.53959789 71.16654004 89.39697266 69.6796875 C87.0318589 66.8359296 84.12225924 64.72555894 81.1875 62.5 C80.57310059 62.0258667 79.95870117 61.5517334 79.32568359 61.06323242 C77.55622183 59.70104993 75.7798694 58.34854338 74 57 C73.11183594 56.32582031 72.22367188 55.65164062 71.30859375 54.95703125 C69.5456138 53.62927712 67.77411191 52.31284281 66 51 C65.67 51.99 65.34 52.98 65 54 C64.9071875 52.8553125 64.9071875 52.8553125 64.8125 51.6875 C63.7452344 48.15731377 62.1524958 47.69749774 59 46 C59 45.34 59 44.68 59 44 C57.88625 43.71125 56.7725 43.4225 55.625 43.125 C52 42 52 42 50 40 C43.14883297 34.27512649 43.14883297 34.27512649 35 31 C34.59523438 30.55914062 34.19046875 30.11828125 33.7734375 29.6640625 C27.20984154 23.50526982 16.19608243 20.35835051 7.375 19.75 C3.9381914 20.00457841 1.20013111 20.75116835 -2 22 C-3.19528791 27.63815054 -3.1443461 33.15722289 -3.1328125 38.890625 C-3.13376923 39.94924744 -3.13472595 41.00786987 -3.13571167 42.09857178 C-3.13639124 44.34110575 -3.13455252 46.5836417 -3.13037109 48.82617188 C-3.12508367 52.19666181 -3.1302903 55.56701455 -3.13671875 58.9375 C-3.14055344 68.70915988 -3.09109809 78.46987244 -2.58984375 88.23046875 C-2.55581451 88.93911072 -2.52178528 89.64775269 -2.48672485 90.37786865 C-2.18705353 95.37615733 -1.11817302 99.86288668 0.35546875 104.625 C2.53615876 112.66051227 0.76898289 121.00340588 -3.21875 128.19921875 C-7.60534432 134.59633547 -13.69291815 139.27367235 -21.1875 141.4375 C-24.84365849 141.97693322 -27.43698076 141.89075481 -31 141 C-31 141.66 -31 142.32 -31 143 C-33.3125 143.1875 -33.3125 143.1875 -36 143 C-37.00976901 142.00986539 -38.00854133 141.00846899 -39 140 C-40.3770443 139.25579854 -41.77520013 138.54990436 -43.1875 137.875 C-50.76849415 133.76914346 -56.45102208 127.24669326 -59 119 C-60.79400499 110.58197657 -59.42007377 102.48897715 -55.33984375 94.8828125 C-53.26039843 91.9606765 -50.67991983 89.78742082 -47.90234375 87.54296875 C-47.27457031 87.03378906 -46.64679687 86.52460938 -46 86 C-45.14148438 85.4121875 -45.14148438 85.4121875 -44.265625 84.8125 C-42.15464934 81.78937436 -42.69178191 78.35665936 -42.8125 74.8125 C-42.82603516 74.06291016 -42.83957031 73.31332031 -42.85351562 72.54101562 C-42.88881461 70.69370233 -42.94262083 68.84675934 -43 67 C-42.67 67 -42.34 67 -42 67 C-41.67 72.94 -41.34 78.88 -41 85 C-35.555 84.505 -35.555 84.505 -30 84 C-29.67 81.03 -29.34 78.06 -29 75 C-28.67 75 -28.34 75 -28 75 C-28 77.64 -28 80.28 -28 83 C-26.741875 83.144375 -25.48375 83.28875 -24.1875 83.4375 C-21.57332877 83.73748686 -19.52560108 84.15813297 -17 85 C-17.0707373 83.89962402 -17.14147461 82.79924805 -17.21435547 81.66552734 C-17.94291975 69.64643543 -18.26163969 57.65632716 -18.14257812 45.61523438 C-18.13071218 43.59670509 -18.13734126 41.57799426 -18.16113281 39.55957031 C-18.1943634 36.59255378 -18.16989717 33.63093085 -18.1328125 30.6640625 C-18.15425323 29.76515289 -18.17569397 28.86624329 -18.19778442 27.94009399 C-18.12770083 25.33399122 -17.98902602 23.41633533 -17 21 C-14.81906562 19.21670154 -12.72835111 18.09702972 -10.15475464 16.96151733 C-6.03726905 15.1241695 -4.52642989 12.29681509 -2.87890625 8.23828125 C-1.86806866 5.50657135 -0.91084601 2.7664525 0 0 Z " fill="#9F5AD3" transform="translate(67,171)"/>
<path d="M0 0 C4.90121887 1.18305283 7.44356379 2.37878353 11 6 C12.75108125 7.33873873 14.52423049 8.64885765 16.3125 9.9375 C30.05506692 20.15969145 42.24618311 31.94493232 54.29272461 44.08691406 C56.71727876 46.53000645 59.15002345 48.96471985 61.58398438 51.3984375 C63.14370607 52.9630664 64.70296833 54.52815346 66.26171875 56.09375 C66.98147385 56.81461792 67.70122894 57.53548584 68.4427948 58.27819824 C71.23799619 61.09993562 73.87012004 63.83079224 76.29223633 66.98632812 C76.85579834 67.65083984 77.41936035 68.31535156 78 69 C81.04173894 69.16670273 81.04173894 69.16670273 84 69 C85.03367834 69.96514718 86.02910814 70.97171551 87 72 C88.42105616 72.94195723 89.86016334 73.85702617 91.3125 74.75 C98.9000759 79.78785478 102.34465955 84.77927325 105.140625 93.44921875 C106.53048853 98.06330892 106.53048853 98.06330892 110 101 C110.61101562 101.76957031 111.22203125 102.53914063 111.8515625 103.33203125 C117.06379906 109.80468138 124.47944682 114.41564963 131.1875 119.25 C132.04190674 119.86814575 132.04190674 119.86814575 132.91357422 120.4987793 C140.26172391 126.10629503 140.26172391 126.10629503 148.9375 127.75 C149.948125 127.5025 150.95875 127.255 152 127 C152.3403125 125.824375 152.3403125 125.824375 152.6875 124.625 C154 122 154 122 156.3125 120.75 C158.863449 120.03810726 161.40164372 119.50487325 164 119 C163.98984863 118.22615967 163.97969727 117.45231934 163.96923828 116.6550293 C163.90832455 108.33408995 164.29523354 100.11074109 164.875 91.8125 C165.78760082 78.21553919 166.49076507 64.61260364 167.125 51 C167.16929138 50.05097809 167.21358276 49.10195618 167.25921631 48.12417603 C167.50940829 42.74959728 167.75618654 37.37487172 168 32 C170.96783129 33.45668783 173.86415313 35.01232086 176.75 36.625 C177.94882812 37.29402344 177.94882812 37.29402344 179.171875 37.9765625 C179.77515625 38.31429687 180.3784375 38.65203125 181 39 C181.24427512 57.57352103 180.53868014 76.02078152 179.5 94.5625 C179.35409699 97.2427651 179.21023079 99.92313829 179.06640625 102.60351562 C178.71793997 109.06940743 178.36206629 115.53485619 178 122 C178.6084375 122.28875 179.216875 122.5775 179.84375 122.875 C185.54805114 125.85115712 188.19897762 130.47017048 190.3359375 136.31640625 C191.98518361 142.98130083 190.56572043 149.28080386 187.21484375 155.18359375 C183.29310295 161.0472898 179.42880819 163.86315625 172.51171875 165.58984375 C164.92531595 166.82868091 159.21268648 164.32186885 153 160 C148.9017143 156.11741355 147.39056231 151.36209254 146 146 C146 145.34 146 144.68 146 144 C145.28070313 143.89816406 144.56140625 143.79632813 143.8203125 143.69140625 C132.13876337 140.82764698 120.37768232 129.32709118 111.2421875 121.796875 C109.09218495 120.0135089 109.09218495 120.0135089 107.0078125 118.703125 C105.3125 117.5625 105.3125 117.5625 103 115 C102.78717305 111.90488813 103.42813462 109.03337287 104 106 C104.94476301 97.00073202 102.53921566 88.73539838 96.875 81.625 C92.2254035 76.7343877 85.70657039 73.09787273 79 72 C75.63740865 72.03889433 72.28924033 72.12115932 68.93164062 72.30273438 C65.24562979 72.39600738 63.28110234 72.18831127 60.18359375 70.11328125 C59.46300781 69.41589844 58.74242187 68.71851562 58 68 C57.01 67.34 56.02 66.68 55 66 C54.67 65.01 54.34 64.02 54 63 C50.2570134 58.66505034 50.2570134 58.66505034 45 57 C44.34 57 43.68 57 43 57 C43.10957031 56.29359375 43.21914062 55.5871875 43.33203125 54.859375 C42.86139715 50.80638486 40.5346717 48.9140623 37.6875 46.25 C37.18798828 45.75628906 36.68847656 45.26257813 36.17382812 44.75390625 C33.80835509 42.46676014 32.15815886 41.05271962 29 40 C28.236875 39.05125 27.47375 38.1025 26.6875 37.125 C20.71569748 29.88100897 12.35241825 23.74981417 4.1875 19.1875 C1 17 1 17 0 14.375 C0 13.26125 0 12.1475 0 11 C-0.01160156 10.06671875 -0.02320312 9.1334375 -0.03515625 8.171875 C-0.05961765 5.44617614 -0.04364417 2.72533614 0 0 Z " fill="#AC63DE" transform="translate(82,50)"/>
<path d="M0 0 C0.495 1.485 0.495 1.485 1 3 C1.886875 3.103125 2.77375 3.20625 3.6875 3.3125 C10.80290202 4.78928155 16.43269974 9.67089595 20.5 15.5625 C24.94641517 22.6069659 25.20817692 28.68810695 24.83398438 36.72265625 C24.67640669 42.79754783 25.9658926 46.79154053 30.1875 51.375 C30.785625 51.91125 31.38375 52.4475 32 53 C31.505 53.99 31.505 53.99 31 55 C28.36 52.03 25.72 49.06 23 46 C23 46.66 23 47.32 23 48 C22.34 48.4125 21.68 48.825 21 49.25 C18.7153573 50.8690267 18.7153573 50.8690267 18.58203125 53.765625 C19.13104417 58.0140614 20.70776229 59.47241248 23.6875 62.5 C24.59628906 63.44488281 25.50507812 64.38976562 26.44140625 65.36328125 C27.70791016 66.66845703 27.70791016 66.66845703 29 68 C30.7125356 69.96847499 32.35667814 71.97323637 34 74 C33.67 74.66 33.34 75.32 33 76 C31.86111328 74.700625 31.86111328 74.700625 30.69921875 73.375 C29.69574764 72.24961184 28.69181746 71.12463292 27.6875 70 C26.93823242 69.14148438 26.93823242 69.14148438 26.17382812 68.265625 C24.84401939 66.78610269 23.42612877 65.38691538 22 64 C21.01 64 20.02 64 19 64 C18.67 63.01 18.34 62.02 18 61 C18.33 60.67 18.66 60.34 19 60 C15.7 60 12.4 60 9 60 C8.67 63.63 8.34 67.26 8 71 C7.67 71 7.34 71 7 71 C7 67.37 7 63.74 7 60 C5.948125 60.33 4.89625 60.66 3.8125 61 C0.61126643 61.83966782 -1.7411008 62.19750904 -5 62 C-5 64.31 -5 66.62 -5 69 C-5.66 69 -6.32 69 -7 69 C-7 67.35 -7 65.7 -7 64 C-9.475 64.495 -9.475 64.495 -12 65 C-12.33648812 69.22892186 -12.66863932 73.45817353 -13 77.6875 C-13.09539063 78.88568359 -13.19078125 80.08386719 -13.2890625 81.31835938 C-13.37929688 82.47529297 -13.46953125 83.63222656 -13.5625 84.82421875 C-13.68818359 86.41882935 -13.68818359 86.41882935 -13.81640625 88.0456543 C-13.9818322 90.70764822 -14.03448371 93.33397837 -14 96 C-14.33 96 -14.66 96 -15 96 C-15.33 101.28 -15.66 106.56 -16 112 C-19.75976562 112.73242188 -19.75976562 112.73242188 -23.51953125 113.46484375 C-26.11397171 113.97741153 -26.11397171 113.97741153 -29 115 C-29 114.34 -29 113.68 -29 113 C-29.66 112.67 -30.32 112.34 -31 112 C-30.01 112 -29.02 112 -28 112 C-28.16226074 111.00572998 -28.32452148 110.01145996 -28.49169922 108.98706055 C-29.04907444 105.05963984 -29.15664986 101.16939141 -29.1328125 97.20703125 C-29.13056671 96.47523148 -29.12832092 95.7434317 -29.12600708 94.98945618 C-29.04738743 85.74760028 -28.37111477 76.5362866 -27.70361328 67.3215332 C-27.54004246 65.03130459 -27.39022572 62.74049615 -27.2421875 60.44921875 C-27.18811737 59.75761154 -27.13404724 59.06600433 -27.07833862 58.35343933 C-26.84860093 54.66350436 -26.92996809 52.12894433 -29 49 C-29.66 49 -30.32 49 -31 49 C-35.44163947 39.7677351 -37.70113118 32.4839077 -34.9375 22.4375 C-31.38333714 13.12427696 -24.91953607 7.183367 -16 3 C-12.58008414 1.83205327 -9.34566143 1.89841672 -5.75 1.9375 C-4.67234375 1.94652344 -3.5946875 1.95554687 -2.484375 1.96484375 C-1.66453125 1.97644531 -0.8446875 1.98804687 0 2 C0 1.34 0 0.68 0 0 Z " fill="#CA82F1" transform="translate(58,24)"/>
<path d="M0 0 C2.97 0.33 5.94 0.66 9 1 C9 1.66 9 2.32 9 3 C9.51175781 3.09410156 10.02351563 3.18820313 10.55078125 3.28515625 C13.95515888 4.27877843 17.03211549 5.84640177 20.1875 7.4375 C20.8872998 7.79021973 21.58709961 8.14293945 22.30810547 8.50634766 C44.13749302 19.66617909 63.14980945 34.02576641 82.01953125 49.55078125 C117.82067506 80.52616822 117.82067506 80.52616822 158 105 C158 103.35 158 101.7 158 100 C158.99 99.67 159.98 99.34 161 99 C161.06316406 99.87140625 161.12632812 100.7428125 161.19140625 101.640625 C162.23160891 111.7579646 164.59077087 120.5236669 172.6953125 127.23046875 C177.3044228 130.27599804 181.71695901 132.37086842 187 134 C185 136 185 136 182.375 136.125 C181.59125 136.08375 180.8075 136.0425 180 136 C180 135.34 180 134.68 180 134 C173.83394565 129.1812528 166.97213752 125.96749051 159.73046875 123.12890625 C157.35838318 122.14817273 155.25285232 121.07561453 153.0625 119.75 C150.24053475 118.13744843 148.1959026 117.38738213 145 117 C145 116.34 145 115.68 145 115 C142.99500982 113.51960822 142.99500982 113.51960822 140.375 112 C127.70414529 104.151514 115.84985299 95.0228331 104 86 C103.31679687 85.48131348 102.63359375 84.96262695 101.9296875 84.42822266 C99.94707088 82.91817364 97.97224077 81.39856614 96 79.875 C95.39414063 79.41359619 94.78828125 78.95219238 94.1640625 78.47680664 C92.73790771 77.36513405 91.36294822 76.18832048 90 75 C90 74.34 90 73.68 90 73 C88.68 73 87.36 73 86 73 C84.76518131 71.58877864 83.53959789 70.16654004 82.39697266 68.6796875 C80.0318589 65.8359296 77.12225924 63.72555894 74.1875 61.5 C73.57310059 61.0258667 72.95870117 60.5517334 72.32568359 60.06323242 C70.55622183 58.70104993 68.7798694 57.34854338 67 56 C66.11183594 55.32582031 65.22367187 54.65164062 64.30859375 53.95703125 C62.5456138 52.62927712 60.77411191 51.31284281 59 50 C58.67 50.99 58.34 51.98 58 53 C57.9071875 51.8553125 57.9071875 51.8553125 57.8125 50.6875 C56.7452344 47.15731377 55.1524958 46.69749774 52 45 C52 44.34 52 43.68 52 43 C50.88625 42.71125 49.7725 42.4225 48.625 42.125 C45 41 45 41 43 39 C36.14883297 33.27512649 36.14883297 33.27512649 28 30 C27.59523438 29.55914062 27.19046875 29.11828125 26.7734375 28.6640625 C20.5024182 22.7798021 9.52681804 19.23028409 1 18.875 C0.34 18.91625 -0.32 18.9575 -1 19 C-1.33 18.34 -1.66 17.68 -2 17 C-1.34 16.67 -0.68 16.34 0 16 C-0.33 14.68 -0.66 13.36 -1 12 C-0.01 11.67 0.98 11.34 2 11 C1.855625 10.37351563 1.71125 9.74703125 1.5625 9.1015625 C1.376875 8.28429687 1.19125 7.46703125 1 6.625 C0.7215625 5.40683594 0.7215625 5.40683594 0.4375 4.1640625 C0 2 0 2 0 0 Z " fill="#BA72E7" transform="translate(74,172)"/>
<path d="M0 0 C0.71014394 10.98186874 1.05805068 21.89051132 0.98046875 32.89550781 C0.94461534 41.29416867 1.37813308 49.62700616 2 58 C7.01704877 58.1244791 11.19612752 57.93137194 16.0625 56.5625 C23.61695395 54.46347723 30.82335995 53.80653772 38.625 53.8125 C39.49930664 53.81185547 40.37361328 53.81121094 41.27441406 53.81054688 C48.38584652 53.86808697 55.0002213 54.66670882 62 56 C61.67 61.61 61.34 67.22 61 73 C60.67 72.01 60.34 71.02 60 70 C55.05 70.495 55.05 70.495 50 71 C50 70.34 50 69.68 50 69 C37.3307318 69.18834232 25.94807669 69.50116202 14 74 C13.34 74 12.68 74 12 74 C11.67 75.65 11.34 77.3 11 79 C10.34 78.34 9.68 77.68 9 77 C5.91652174 76.83318891 5.91652174 76.83318891 3 77 C2.5978125 75.58847656 2.5978125 75.58847656 2.1875 74.1484375 C0.02166261 67.26620421 -1.65263642 62.00943939 -8.03515625 58.015625 C-10.01475313 56.99237413 -12.00598731 55.99480201 -14 55 C-13.99476318 54.43490723 -13.98952637 53.86981445 -13.98413086 53.28759766 C-13.96337578 50.7334097 -13.9503446 48.17923947 -13.9375 45.625 C-13.92912109 44.73554688 -13.92074219 43.84609375 -13.91210938 42.9296875 C-13.90888672 42.07890625 -13.90566406 41.228125 -13.90234375 40.3515625 C-13.89710693 39.56604004 -13.89187012 38.78051758 -13.88647461 37.97119141 C-13.87426047 35.92227332 -13.87426047 35.92227332 -15 34 C-14.835 33.154375 -14.67 32.30875 -14.5 31.4375 C-13.96048465 27.72833199 -14.28503509 24.7268714 -14.84375 21.05078125 C-15 19 -15 19 -14 16 C-13.61856216 13.60835693 -13.26767307 11.21175762 -12.9375 8.8125 C-12.76089844 7.54019531 -12.58429687 6.26789063 -12.40234375 4.95703125 C-12.26957031 3.98121094 -12.13679688 3.00539063 -12 2 C-7.84055256 0.69507531 -4.34963091 -0.12019705 0 0 Z " fill="#9A54CE" transform="translate(65,84)"/>
<path d="M0 0 C1.98 0 3.96 0 6 0 C8.4056198 3.84899168 8.71267364 7.54644135 9 12 C8.34 12.66 7.68 13.32 7 14 C7 14.99 7 15.98 7 17 C7.66 17.33 8.32 17.66 9 18 C5.37 19.32 1.74 20.64 -2 22 C-2.84587099 26.3958687 -3.12171891 30.54147606 -3.11352539 35.01513672 C-3.11367142 35.68900925 -3.11381744 36.36288177 -3.1139679 37.05717468 C-3.11327621 39.26471273 -3.10551897 41.47216436 -3.09765625 43.6796875 C-3.09578942 45.21810866 -3.09436677 46.75653042 -3.09336853 48.29495239 C-3.08956419 52.32924055 -3.07975184 56.36349227 -3.06866455 60.39776611 C-3.0584055 64.52038073 -3.05386131 68.64300128 -3.04882812 72.765625 C-3.03812757 80.84376665 -3.02107635 88.92187878 -3 97 C-5.35953094 94.64046906 -5.49141413 93.22104383 -6 90 C-6.886875 89.9175 -7.77375 89.835 -8.6875 89.75 C-12.62980237 88.85740324 -14.21930011 87.93251139 -17 85 C-17.55550912 82.05491377 -17.78525478 79.66581363 -17.8046875 76.7109375 C-17.82796112 75.88113373 -17.85123474 75.05132996 -17.87521362 74.19638062 C-17.94274061 71.46411276 -17.97236099 68.73294037 -18 66 C-18.03741737 64.1031768 -18.07551136 62.20636683 -18.11425781 60.30957031 C-18.19717038 55.40990093 -18.1910292 50.51525324 -18.14257812 45.61523438 C-18.13071218 43.59670509 -18.13734126 41.57799426 -18.16113281 39.55957031 C-18.1943634 36.59255378 -18.16989717 33.63093085 -18.1328125 30.6640625 C-18.15425323 29.76515289 -18.17569397 28.86624329 -18.19778442 27.94009399 C-18.12770083 25.33399122 -17.98902602 23.41633533 -17 21 C-14.81906562 19.21670154 -12.72835111 18.09702972 -10.15475464 16.96151733 C-6.03726905 15.1241695 -4.52642989 12.29681509 -2.87890625 8.23828125 C-1.86806866 5.50657135 -0.91084601 2.7664525 0 0 Z " fill="#9753CB" transform="translate(67,171)"/>
<path d="M0 0 C3.3 0.99 6.6 1.98 10 3 C10 3.66 10 4.32 10 5 C10.66 5 11.32 5 12 5 C12.33 4.01 12.66 3.02 13 2 C19.435 1.505 19.435 1.505 26 1 C26 14.86 26 28.72 26 43 C25.67 43 25.34 43 25 43 C24.67 30.46 24.34 17.92 24 5 C20.37 5 16.74 5 13 5 C13.12133352 8.89359664 13.24487263 12.7871173 13.3706665 16.68057251 C13.41516144 18.05831057 13.45939231 19.43605718 13.50335693 20.81381226 C13.80122839 30.08926692 14.14858184 39.35841488 14.78295898 48.61816406 C15.08984374 53.72719525 15.21431856 58.99492584 14 64 C11.47524538 65.26237731 9.68799534 65.09856404 6.875 65.0625 C5.26625 65.041875 3.6575 65.02125 2 65 C1.34 59.72 0.68 54.44 0 49 C-0.33 49 -0.66 49 -1 49 C-1.0252689 42.18238106 -1.04283244 35.36477411 -1.05493164 28.54711914 C-1.05997333 26.22582549 -1.06680651 23.90453503 -1.07543945 21.58325195 C-1.08751225 18.25471205 -1.09322979 14.92621398 -1.09765625 11.59765625 C-1.10281754 10.55287613 -1.10797882 9.50809601 -1.11329651 8.43165588 C-1.11337204 7.47073532 -1.11344757 6.50981476 -1.11352539 5.51977539 C-1.115746 4.66928116 -1.11796661 3.81878693 -1.12025452 2.94252014 C-1 1 -1 1 0 0 Z " fill="#B36CE3" transform="translate(24,191)"/>
<path d="M0 0 C0.87430664 -0.00064453 1.74861328 -0.00128906 2.64941406 -0.00195312 C9.76084652 0.05558697 16.3752213 0.85420882 23.375 2.1875 C23.045 7.7975 22.715 13.4075 22.375 19.1875 C21.88 17.7025 21.88 17.7025 21.375 16.1875 C18.075 16.5175 14.775 16.8475 11.375 17.1875 C11.375 16.5275 11.375 15.8675 11.375 15.1875 C-1.2942682 15.37584232 -12.67692331 15.68866202 -24.625 20.1875 C-25.285 20.1875 -25.945 20.1875 -26.625 20.1875 C-26.955 21.8375 -27.285 23.4875 -27.625 25.1875 C-29.625 24.1875 -31.625 23.1875 -33.625 22.1875 C-33.13 20.7025 -33.13 20.7025 -32.625 19.1875 C-31.965 18.8575 -31.305 18.5275 -30.625 18.1875 C-30.625 14.5575 -30.625 10.9275 -30.625 7.1875 C-26.005 5.8675 -21.385 4.5475 -16.625 3.1875 C-16.625 2.5275 -16.625 1.8675 -16.625 1.1875 C-11.05220651 0.24868708 -5.6472633 -0.00431583 0 0 Z " fill="#B26AE2" transform="translate(103.625,137.8125)"/>
<path d="M0 0 C3.54583971 3.70000666 3.76051177 7.05057663 4 12 C3.34 12.66 2.68 13.32 2 14 C2 14.99 2 15.98 2 17 C2.66 17.33 3.32 17.66 4 18 C-1.445 19.98 -1.445 19.98 -7 22 C-7.12375 22.928125 -7.2475 23.85625 -7.375 24.8125 C-8 28 -8 28 -10 31 C-10.36887189 33.90644244 -10.36887189 33.90644244 -10.4140625 37.19921875 C-10.45273437 38.40771484 -10.49140625 39.61621094 -10.53125 40.86132812 C-10.5621875 42.12396484 -10.593125 43.38660156 -10.625 44.6875 C-10.66367187 45.96173828 -10.70234375 47.23597656 -10.7421875 48.54882812 C-10.83657686 51.69907292 -10.9221583 54.84930991 -11 58 C-11.33 58 -11.66 58 -12 58 C-12 45.13 -12 32.26 -12 19 C-11.01 18.67 -10.02 18.34 -9 18 C-9 18.66 -9 19.32 -9 20 C-7.35 20 -5.7 20 -4 20 C-4 14.06 -4 8.12 -4 2 C-2.68 1.34 -1.36 0.68 0 0 Z " fill="#A05BD5" transform="translate(72,171)"/>
<path d="M0 0 C-2.77579761 2.77579761 -5.30306937 2.86061387 -9.125 3.625 C-10.40632813 3.88539063 -11.68765625 4.14578125 -13.0078125 4.4140625 C-13.99523437 4.60742188 -14.98265625 4.80078125 -16 5 C-15.88140625 5.74765625 -15.7628125 6.4953125 -15.640625 7.265625 C-14.57461407 15.40994854 -14.57461407 15.40994854 -16.9375 18.6875 C-17.618125 19.120625 -18.29875 19.55375 -19 20 C-18.34 20.33 -17.68 20.66 -17 21 C-18.32 21 -19.64 21 -21 21 C-21.32613281 20.03578125 -21.65226562 19.0715625 -21.98828125 18.078125 C-22.4293112 16.80195323 -22.87073846 15.52591871 -23.3125 14.25 C-23.52583984 13.61578125 -23.73917969 12.9815625 -23.95898438 12.328125 C-25.20471385 8.75827337 -26.52604641 5.87297836 -29 3 C-27.02 3.66 -25.04 4.32 -23 5 C-22.67 4.34 -22.34 3.68 -22 3 C-19.3828125 2.40234375 -19.3828125 2.40234375 -16.125 1.9375 C-2.5098716 -0.04735607 -2.5098716 -0.04735607 0 0 Z " fill="#8F4DC4" transform="translate(89,140)"/>
<path d="M0 0 C3.15192044 1.39627755 5.28205405 3.03356539 7.71118164 5.46826172 C8.42194351 6.17594696 9.13270538 6.8836322 9.86500549 7.61276245 C10.62240524 8.37734772 11.37980499 9.14193298 12.16015625 9.9296875 C12.94643906 10.71642853 13.73272186 11.50316956 14.54283142 12.31375122 C16.20353419 13.97747324 17.86180765 15.6436232 19.51782227 17.31201172 C22.05109198 19.86350989 24.59224401 22.40694324 27.13476562 24.94921875 C28.74786803 26.56723771 30.36051363 28.18571224 31.97265625 29.8046875 C32.73208023 30.5652243 33.49150421 31.32576111 34.27394104 32.10934448 C34.98155075 32.82333405 35.68916046 33.53732361 36.41821289 34.27294922 C37.03902237 34.8975705 37.65983185 35.52219177 38.29945374 36.16574097 C43 41.23588791 43 41.23588791 43 45 C40.75215576 45.24942657 38.50152494 45.47383488 36.25 45.6875 C34.99703125 45.81511719 33.7440625 45.94273438 32.453125 46.07421875 C29 46 29 46 26.546875 44.64453125 C25 43 25 43 25 41 C26.32 41.33 27.64 41.66 29 42 C29 41.67 29 41.34 29 41 C33.455 40.505 33.455 40.505 38 40 C37.278125 39.113125 36.55625 38.22625 35.8125 37.3125 C35.40644531 36.81363281 35.00039062 36.31476563 34.58203125 35.80078125 C32.49356242 33.42353649 30.24229886 31.23296092 28 29 C26.60830178 27.60023864 25.21662608 26.20045466 23.82563782 24.79998779 C21.71186142 22.67275803 19.59535064 20.54825707 17.47875977 18.42382812 C16.36166551 17.30165989 15.24546373 16.17860254 14.13012695 15.0546875 C12.51226275 13.42474084 10.89123102 11.79800439 9.26953125 10.171875 C8.77056839 9.66775085 8.27160553 9.16362671 7.75752258 8.64422607 C5.13179444 5.98742545 5.13179444 5.98742545 2 4 C2 3.34 2 2.68 2 2 C1.34 2 0.68 2 0 2 C0 1.34 0 0.68 0 0 Z " fill="#A766CD" transform="translate(116,76)"/>
<path d="M0 0 C0.33 0 0.66 0 1 0 C1.77233585 11.7090689 2.16079259 23.36437099 2.13037109 35.09887695 C2.12493422 37.59267051 2.13040105 40.08628941 2.13671875 42.58007812 C2.13605896 44.20052122 2.13477985 45.82096421 2.1328125 47.44140625 C2.13483673 48.16969131 2.13686096 48.89797638 2.13894653 49.64833069 C2.11568682 54.82844653 1.63756324 59.85865709 1 65 C0.67 65 0.34 65 0 65 C-1.37054403 43.31603545 -1.46284406 21.68143871 0 0 Z " fill="#C88ADF" transform="translate(276,155)"/>
<path d="M0 0 C2.22155761 2.8092371 3.85987728 5.63726241 5.5 8.8125 C10.10761666 16.61089119 17.53757648 20.41149398 26 23 C24 25 24 25 21.375 25.125 C20.59125 25.08375 19.8075 25.0425 19 25 C19 24.34 19 23.68 19 23 C12.8753153 18.21358302 6.07246017 15.02439362 -1.1171875 12.19921875 C-5.27495458 10.46963271 -9.13218049 8.29529693 -13 6 C-10.65525026 5.17882113 -9.48338124 4.79706146 -7.1484375 5.77734375 C-6.56320313 6.16019531 -5.97796875 6.54304688 -5.375 6.9375 C-2.37479219 9.17381667 -2.37479219 9.17381667 0 9 C1.15941038 5.52176885 0.70820884 3.54104422 0 0 Z " fill="#A865D3" transform="translate(235,283)"/>
<path d="M0 0 C0.99 0 1.98 0 3 0 C5.62355658 7.05080831 5.62355658 7.05080831 5 11 C3 13.3125 3 13.3125 1 15 C1.66 15.33 2.32 15.66 3 16 C1.68 16 0.36 16 -1 16 C-2.42258812 12.17679443 -3.24042276 9.08718695 -3 5 C-1.35 4.67 0.3 4.34 2 4 C2 3.01 2 2.02 2 1 C1.34 0.67 0.68 0.34 0 0 Z " fill="#8A49C1" transform="translate(69,145)"/>
<path d="M0 0 C1.9375 0.75 1.9375 0.75 4 2 C4.62890625 4.078125 4.62890625 4.078125 5 6 C2.75215576 6.24942657 0.50152494 6.47383488 -1.75 6.6875 C-3.00296875 6.81511719 -4.2559375 6.94273438 -5.546875 7.07421875 C-9 7 -9 7 -11.453125 5.64453125 C-13 4 -13 4 -13 2 C-11.68 2.33 -10.36 2.66 -9 3 C-9 2.67 -9 2.34 -9 2 C-4.545 1.505 -4.545 1.505 0 1 C0 0.67 0 0.34 0 0 Z " fill="#A65DD6" transform="translate(154,115)"/>
<path d="M0 0 C0.33 0 0.66 0 1 0 C1 2.31 1 4.62 1 7 C1.8353125 7.0928125 1.8353125 7.0928125 2.6875 7.1875 C8.55365719 9.24858226 11.5550072 14.8945476 14.12890625 20.21875 C15.59516211 24.90024854 14.91146775 29.25314813 14 34 C13.34 34 12.68 34 12 34 C11.90203125 32.91460937 11.8040625 31.82921875 11.703125 30.7109375 C11.55295324 29.26553435 11.40186268 27.82022647 11.25 26.375 C11.188125 25.66214844 11.12625 24.94929688 11.0625 24.21484375 C10.376321 17.98205119 7.93100481 13.07343876 3 9 C2.01 8.67 1.02 8.34 0 8 C0 5.36 0 2.72 0 0 Z " fill="#A365CA" transform="translate(258,165)"/>
<path d="M0 0 C0.33 0 0.66 0 1 0 C1.02501624 5.1737433 1.04300717 10.34745016 1.05493164 15.52124023 C1.05991116 17.27547826 1.0666972 19.02971224 1.07543945 20.78393555 C1.12459647 30.91317337 1.01746167 40.91141446 0 51 C-0.33 51 -0.66 51 -1 51 C-1 46.71 -1 42.42 -1 38 C-1.66 37.67 -2.32 37.34 -3 37 C-2.34 37 -1.68 37 -1 37 C-0.67 24.79 -0.34 12.58 0 0 Z " fill="#BB6DED" transform="translate(251,87)"/>
<path d="M0 0 C0 0.33 0 0.66 0 1 C-1.25554687 0.94199219 -2.51109375 0.88398438 -3.8046875 0.82421875 C-15.07174635 0.45855127 -23.18973565 0.69497603 -31.875 8.625 C-32.57625 9.40875 -33.2775 10.1925 -34 11 C-35.31175986 12.02813611 -36.6369893 13.04084432 -38 14 C-35.28871066 7.34501708 -29.27778164 3.05574139 -23 0 C-14.5626024 -3.27597281 -8.43034876 -3.23605907 0 0 Z " fill="#C78BE1" transform="translate(285,28)"/>
<path d="M0 0 C4.25097813 1.47723455 7.537449 3.63583436 11.1875 6.25 C17.22858551 10.52546884 23.36752372 14.68376186 30 18 C30 18.66 30 19.32 30 20 C18.89791608 16.74142375 8.93794454 8.24227067 0 1 C0 0.67 0 0.34 0 0 Z " fill="#AB6AD1" transform="translate(200,258)"/>
<path d="M0 0 C2.52588702 2.36292656 3.88820837 3.66462511 5 7 C5.01578603 8.84802969 4.96681127 10.69696343 4.87890625 12.54296875 C4.83056641 13.61611328 4.78222656 14.68925781 4.73242188 15.79492188 C4.67634766 16.91447266 4.62027344 18.03402344 4.5625 19.1875 C4.51029297 20.31865234 4.45808594 21.44980469 4.40429688 22.61523438 C4.27456193 25.4104328 4.13959359 28.2052794 4 31 C3.67 31 3.34 31 3 31 C2.67 23.41 2.34 15.82 2 8 C1.01 8.33 0.02 8.66 -1 9 C-2.0326802 6.21176345 -2.04509293 5.1322726 -1.0625 2.25 C-0.711875 1.5075 -0.36125 0.765 0 0 Z " fill="#CA8BE1" transform="translate(246,75)"/>
<path d="M0 0 C2.5 2.5 2.5 2.5 5 5 C9.40141952 8.20103238 13.71985243 10.54795942 19 12 C17 14 17 14 14.375 14.125 C13.59125 14.08375 12.8075 14.0425 12 14 C12 13.34 12 12.68 12 12 C6.45880739 7.84160049 0.47506581 4.44613597 -6 2 C-3 0 -3 0 0 0 Z " fill="#B175D6" transform="translate(242,294)"/>
<path d="M0 0 C4.65913145 3.80337261 8.57060181 7.66006193 12.32421875 12.36328125 C14.20532454 14.20053842 15.4332473 14.61414829 18 15 C18.12375 15.7425 18.2475 16.485 18.375 17.25 C18.95486701 19.80141485 19.73708739 21.7267573 21 24 C16.80285055 20.72417604 13.32480923 17.25022295 9.87890625 13.1953125 C7.16329686 10.02239674 4.32822286 6.95901313 1.50390625 3.8828125 C0 2 0 2 0 0 Z " fill="#CA88E5" transform="translate(97,87)"/>
<path d="M0 0 C7.3507965 3.18996829 12.94826145 7.80125131 19 13 C19.74507812 13.63292969 20.49015625 14.26585938 21.2578125 14.91796875 C22.84524414 16.27082041 24.42385886 17.63401101 26 19 C25.67 19.66 25.34 20.32 25 21 C24.17757812 20.28714844 23.35515625 19.57429688 22.5078125 18.83984375 C11.91349373 9.48206071 11.91349373 9.48206071 0 2 C0 1.34 0 0.68 0 0 Z " fill="#A05EC9" transform="translate(87,53)"/>
<path d="M0 0 C0.4125 0.495 0.825 0.99 1.25 1.5 C3.12202338 3.43386092 3.12202338 3.43386092 7 3 C7 3.66 7 4.32 7 5 C5.68 5.33 4.36 5.66 3 6 C2.67 7.65 2.34 9.3 2 11 C0 10 -2 9 -4 8 C-3.67 7.01 -3.34 6.02 -3 5 C-2.34 4.67 -1.68 4.34 -1 4 C-0.34786708 1.97536745 -0.34786708 1.97536745 0 0 Z " fill="#A963D7" transform="translate(74,152)"/>
<path d="M0 0 C0.33 0 0.66 0 1 0 C1 6.6 1 13.2 1 20 C-1.97 20.66 -4.94 21.32 -8 22 C-6 19 -6 19 -3.375 18.3125 C-2.59125 18.209375 -1.8075 18.10625 -1 18 C-1.01160156 17.11957031 -1.02320313 16.23914063 -1.03515625 15.33203125 C-1.04417969 14.17058594 -1.05320313 13.00914062 -1.0625 11.8125 C-1.07410156 10.66394531 -1.08570313 9.51539063 -1.09765625 8.33203125 C-1.01192832 5.40699414 -0.67849023 2.83683709 0 0 Z " fill="#995AC2" transform="translate(247,151)"/>
<path d="M0 0 C0.33 0 0.66 0 1 0 C2.24911667 7.65083958 2.09053426 15.27440986 2 23 C1.67 23 1.34 23 1 23 C-0.19287411 19.12315913 -1 16.08378077 -1 12 C-1.99 11.34 -2.98 10.68 -4 10 C-3.01 9.34 -2.02 8.68 -1 8 C-0.42251197 6.03638136 -0.42251197 6.03638136 -0.3125 3.875 C-0.209375 2.59625 -0.10625 1.3175 0 0 Z " fill="#D698EA" transform="translate(273,93)"/>
<path d="M0 0 C0.33 6.27 0.66 12.54 1 19 C-1.17507149 16.82492851 -1.38642782 16.0285112 -2 13.125 C-2.54751229 10.67885638 -3.02269566 8.95914781 -4.25 6.75 C-5 5 -5 5 -4.25 2.8125 C-3.05419778 1.07858677 -2.24833907 0 0 0 Z " fill="#D697EA" transform="translate(243,52)"/>
<path d="M0 0 C4.32504836 1.65863505 7.09418825 4.871041 10.25 8.125 C11.08144531 8.96998047 11.08144531 8.96998047 11.9296875 9.83203125 C13.29104485 11.21686028 14.64614859 12.60783204 16 14 C15.67 14.99 15.34 15.98 15 17 C13.68 17 12.36 17 11 17 C11.1134375 16.29359375 11.226875 15.5871875 11.34375 14.859375 C10.85191868 10.76823265 8.40640446 8.89932692 5.5 6.25 C3.6535756 4.51245567 1.82227727 2.76311242 0 1 C0 0.67 0 0.34 0 0 Z " fill="#BF85DE" transform="translate(114,90)"/>
<path d="M0 0 C0.33 0 0.66 0 1 0 C1 8.58 1 17.16 1 26 C0.67 26 0.34 26 0 26 C0 23.36 0 20.72 0 18 C-0.66 17.67 -1.32 17.34 -2 17 C-3.125 14.9375 -3.125 14.9375 -4 13 C-2.68 12.67 -1.36 12.34 0 12 C0 8.04 0 4.08 0 0 Z " fill="#ECAAF9" transform="translate(277,137)"/>
<path d="M0 0 C5.52654117 -0.4820659 9.0712208 1.08880075 13.875 3.5 C14.56335938 3.83386719 15.25171875 4.16773438 15.9609375 4.51171875 C17.64573446 5.33071727 19.32360619 6.16393591 21 7 C17.0104546 8.32984847 15.47706083 7.25212425 11.625 5.6875 C10.50351563 5.23761719 9.38203125 4.78773438 8.2265625 4.32421875 C7.16179687 3.88722656 6.09703125 3.45023438 5 3 C3.33379584 2.33217823 1.66731188 1.66505137 0 1 C0 0.67 0 0.34 0 0 Z " fill="#AF6ED4" transform="translate(77,189)"/>
<path d="M0 0 C-2.74861229 2.74861229 -5.22365716 2.92972881 -9 3.75 C-10.258125 4.03359375 -11.51625 4.3171875 -12.8125 4.609375 C-14.3903125 4.80273438 -14.3903125 4.80273438 -16 5 C-16.66 4.34 -17.32 3.68 -18 3 C-17.484375 2.87625 -16.96875 2.7525 -16.4375 2.625 C-14.50259123 2.12886955 -12.58955274 1.54759239 -10.6875 0.9375 C-6.96522436 -0.00884126 -3.82182166 -0.15599272 0 0 Z " fill="#A261CA" transform="translate(89,140)"/>
<path d="M0 0 C2.28062828 3.42094242 2.21925007 4.68187222 2.125 8.6875 C2.10695313 9.68136719 2.08890625 10.67523438 2.0703125 11.69921875 C2.03550781 12.83810547 2.03550781 12.83810547 2 14 C1.67 13.01 1.34 12.02 1 11 C0.34 11 -0.32 11 -1 11 C-1.22174933 9.54364629 -1.42698698 8.08477044 -1.625 6.625 C-1.74101563 5.81289062 -1.85703125 5.00078125 -1.9765625 4.1640625 C-1.98429687 3.44992188 -1.99203125 2.73578125 -2 2 C-1.34 1.34 -0.68 0.68 0 0 Z " fill="#A861D0" transform="translate(52,101)"/>
<path d="M0 0 C2.9719385 1.12451727 5.33440687 2.22293791 8 4 C8 4.66 8 5.32 8 6 C8.598125 6.2475 9.19625 6.495 9.8125 6.75 C12.28647521 8.16370012 13.43370255 9.65055383 15 12 C11.26427172 10.37228982 8.38341608 8.01966695 5.25 5.4375 C4.26515625 4.63183594 3.2803125 3.82617188 2.265625 2.99609375 C1.51796875 2.33738281 0.7703125 1.67867188 0 1 C0 0.67 0 0.34 0 0 Z " fill="#A765CF" transform="translate(93,72)"/>
<path d="M0 0 C2.79422759 1.39711379 4.05858166 3.5593598 6 6 C7.64783606 7.68528688 9.31002677 9.35697047 11 11 C6.01987239 9.49087042 2.75740058 6.44338151 -1 3 C-0.67 2.01 -0.34 1.02 0 0 Z " fill="#B067D6" transform="translate(190,150)"/>
<path d="M0 0 C0 2.97 0 5.94 0 9 C-0.33 9 -0.66 9 -1 9 C-1 7.35 -1 5.7 -1 4 C-2.65 4.33 -4.3 4.66 -6 5 C-5.6875 3.0625 -5.6875 3.0625 -5 1 C-2 0 -2 0 0 0 Z " fill="#CA98F4" transform="translate(52,84)"/>
<path d="M0 0 C0.99 0.33 1.98 0.66 3 1 C-0.20072058 3.65202562 -3.40465877 5.91848666 -7 8 C-7.99 8.66 -8.98 9.32 -10 10 C-8.58768539 6.64117925 -6.96631022 4.86670953 -4.0625 2.6875 C-3.37285156 2.15511719 -2.68320312 1.62273437 -1.97265625 1.07421875 C-1.32167969 0.71972656 -0.67070312 0.36523438 0 0 Z " fill="#A860E0" transform="translate(25,256)"/>
<path d="M0 0 C1.78409802 3.06246747 2.22880021 5.22079273 2.125 8.75 C2.10695313 9.54921875 2.08890625 10.3484375 2.0703125 11.171875 C2.03550781 12.07679687 2.03550781 12.07679687 2 13 C-0.32755853 10.67244147 -1.13456339 9.17326755 -2 6 C-1.125 2.6875 -1.125 2.6875 0 0 Z " fill="#9959C0" transform="translate(52,112)"/>
<path d="M0 0 C0.33 3.3 0.66 6.6 1 10 C-1.475 9.01 -1.475 9.01 -4 8 C-3.34 7.67 -2.68 7.34 -2 7 C-2.33 5.02 -2.66 3.04 -3 1 C-1 0 -1 0 0 0 Z " fill="#BE89DA" transform="translate(235,271)"/>
<path d="M0 0 C1.50433594 0.01353516 1.50433594 0.01353516 3.0390625 0.02734375 C3.80992187 0.03894531 4.58078125 0.05054688 5.375 0.0625 C5.375 0.7225 5.375 1.3825 5.375 2.0625 C3.77273045 2.28495393 2.16803233 2.48996669 0.5625 2.6875 C-0.33082031 2.80351562 -1.22414062 2.91953125 -2.14453125 3.0390625 C-4.625 3.0625 -4.625 3.0625 -7.625 1.0625 C-4.98041621 -0.25979189 -2.94738699 -0.03427194 0 0 Z " fill="#AE6DD3" transform="translate(251.625,212.9375)"/>
<path d="M0 0 C4.2742558 1.5830577 6.26531794 4.50568404 9 8 C4.75153925 7.52794881 2.73180712 5.11122478 0 2 C0 1.34 0 0.68 0 0 Z " fill="#AB6BD1" transform="translate(147,107)"/>
<path d="M0 0 C2.31 0.66 4.62 1.32 7 2 C7.33 3.98 7.66 5.96 8 8 C6.85073734 7.04578192 5.70569459 6.08647955 4.5625 5.125 C3.92441406 4.59132813 3.28632813 4.05765625 2.62890625 3.5078125 C1 2 1 2 0 0 Z " fill="#D093E5" transform="translate(291,32)"/>
<path d="M0 0 C0 1.65 0 3.3 0 5 C-1.98 5.99 -1.98 5.99 -4 7 C-4 5.02 -4 3.04 -4 1 C-2 0 -2 0 0 0 Z " fill="#AA62E1" transform="translate(77,144)"/>
<path d="M0 0 C-4.1795645 2.78637633 -6.14668677 1.79562512 -11 1 C-6.8204355 -1.78637633 -4.85331323 -0.79562512 0 0 Z " fill="#DB97ED" transform="translate(160,181)"/>
<path d="M0 0 C4.43458973 1.3937282 6.87378374 3.60582235 10 7 C5.61308455 6.49381745 3.15608721 3.86917019 0 1 C0 0.67 0 0.34 0 0 Z " fill="#A462CD" transform="translate(199,175)"/>
<path d="M0 0 C0.66 0 1.32 0 2 0 C3.26237731 2.52475462 3.09856404 4.31200466 3.0625 7.125 C3.05347656 8.03507813 3.04445313 8.94515625 3.03515625 9.8828125 C3.02355469 10.58148438 3.01195312 11.28015625 3 12 C2.67 12 2.34 12 2 12 C1.34 8.04 0.68 4.08 0 0 Z " fill="#AE6DD7" transform="translate(257,160)"/>
<path d="M0 0 C2.31 0.33 4.62 0.66 7 1 C5.68 1.33 4.36 1.66 3 2 C3 2.66 3 3.32 3 4 C2.01 4 1.02 4 0 4 C0 2.68 0 1.36 0 0 Z " fill="#D191EA" transform="translate(263,89)"/>
<path d="M0 0 C0.99 0.33 1.98 0.66 3 1 C2.67 2.65 2.34 4.3 2 6 C1.34 5.67 0.68 5.34 0 5 C0 4.34 0 3.68 0 3 C-0.66 2.67 -1.32 2.34 -2 2 C-1.34 1.34 -0.68 0.68 0 0 Z " fill="#C38DF0" transform="translate(72,78)"/>
<path d="M0 0 C2 3.75 2 3.75 2 6 C0.02 6.99 0.02 6.99 -2 8 C-1.125 2.25 -1.125 2.25 0 0 Z " fill="#A963DE" transform="translate(74,177)"/>
<path d="M0 0 C1.9375 0.75 1.9375 0.75 4 2 C4.75 4.125 4.75 4.125 5 6 C2.69 5.67 0.38 5.34 -2 5 C-0.68 4.67 0.64 4.34 2 4 C1.34 2.68 0.68 1.36 0 0 Z " fill="#9A57C8" transform="translate(154,115)"/>
<path d="M0 0 C1.5 1.3125 1.5 1.3125 3 3 C3 3.99 3 4.98 3 6 C2.01 6.33 1.02 6.66 0 7 C-0.93423645 3.98968256 -1.04449911 3.13349732 0 0 Z " fill="#EEB1FF" transform="translate(245,77)"/>
<path d="M0 0 C1.98 0.99 1.98 0.99 4 2 C4 2.99 4 3.98 4 5 C2.68 4.34 1.36 3.68 0 3 C0 2.01 0 1.02 0 0 Z " fill="#FFDBFF" transform="translate(132,174)"/>
<path d="M0 0 C0.33 0 0.66 0 1 0 C1.33 1.98 1.66 3.96 2 6 C1.01 6.495 1.01 6.495 0 7 C0 4.69 0 2.38 0 0 Z " fill="#ECA4FF" transform="translate(264,102)"/>
<path d="M0 0 C1.485 0.99 1.485 0.99 3 2 C1.68 2.33 0.36 2.66 -1 3 C-0.67 2.01 -0.34 1.02 0 0 Z " fill="#FFD4FF" transform="translate(285,305)"/>
<path d="M0 0 C1.98 0 3.96 0 6 0 C6 0.33 6 0.66 6 1 C4.02 1 2.04 1 0 1 C0 0.67 0 0.34 0 0 Z " fill="#E2CDFF" transform="translate(107,154)"/>
<path d="M0 0 C1.98 0.99 1.98 0.99 4 2 C3.01 2 2.02 2 1 2 C0.67 1.34 0.34 0.68 0 0 Z " fill="#E6B0FF" transform="translate(93,105)"/>
<path d="M0 0 C0.99 0.99 1.98 1.98 3 3 C2.01 2.67 1.02 2.34 0 2 C0 1.34 0 0.68 0 0 Z " fill="#E3C0FF" transform="translate(164,248)"/>
<path d="M0 0 C1.65 0 3.3 0 5 0 C5 0.33 5 0.66 5 1 C3.35 1 1.7 1 0 1 C0 0.67 0 0.34 0 0 Z " fill="#F2BFFF" transform="translate(138,180)"/>
<path d="M0 0 C1.32 0.33 2.64 0.66 4 1 C3.01 1.495 3.01 1.495 2 2 C1.34 1.34 0.68 0.68 0 0 Z " fill="#F2CBFF" transform="translate(198,178)"/>
<path d="M0 0 C0.33 1.32 0.66 2.64 1 4 C0.34 3.01 -0.32 2.02 -1 1 C-0.67 0.67 -0.34 0.34 0 0 Z " fill="#FFA1FF" transform="translate(272,112)"/>
<path d="M0 0 C1.32 0.33 2.64 0.66 4 1 C3.01 1.33 2.02 1.66 1 2 C0.67 1.34 0.34 0.68 0 0 Z " fill="#FFE5FF" transform="translate(268,110)"/>
<path d="M0 0 C0.66 0 1.32 0 2 0 C2 0.66 2 1.32 2 2 C1.34 2 0.68 2 0 2 C0 1.34 0 0.68 0 0 Z " fill="#FFFFFF" transform="translate(233,210)"/>
<path d="M0 0 C0.99 0.33 1.98 0.66 3 1 C2.01 1 1.02 1 0 1 C0 0.67 0 0.34 0 0 Z " fill="#E2A5FF" transform="translate(136,177)"/>
<path d="M0 0 C1 4 1 4 1 4 Z " fill="#FFC9FF" transform="translate(291,151)"/>
<path d="M0 0 C1 4 1 4 1 4 Z " fill="#FFDFFF" transform="translate(291,146)"/>
<path d="M0 0 C4 1 4 1 4 1 Z " fill="#DD90FF" transform="translate(105,136)"/>
<path d="M0 0 C4 1 4 1 4 1 Z " fill="#C989FF" transform="translate(99,136)"/>
<path d="M0 0 C0.99 0.495 0.99 0.495 2 1 C1.67 1.66 1.34 2.32 1 3 C0.67 2.01 0.34 1.02 0 0 Z " fill="#FFE9FF" transform="translate(272,130)"/>
<path d="M0 0 C0 3 0 3 0 3 Z " fill="#F2C5FF" transform="translate(47,90)"/>
<path d="M0 0 C0.99 0.495 0.99 0.495 2 1 C1.67 1.66 1.34 2.32 1 3 C0.67 2.01 0.34 1.02 0 0 Z " fill="#EFBFFF" transform="translate(246,85)"/>
<path d="M0 0 C1 4 1 4 1 4 Z " fill="#EF89FF" transform="translate(240,65)"/>
<path d="M0 0 C0.99 0.33 1.98 0.66 3 1 C2.01 1.33 1.02 1.66 0 2 C0 1.34 0 0.68 0 0 Z " fill="#FFDFFF" transform="translate(32,30)"/>
<path d="M0 0 C3 1 3 1 3 1 Z " fill="#E21CE2" transform="translate(19,308)"/>
<path d="" fill="#E21CE2" transform="translate(0,0)"/>
<path d="" fill="#FFD4FF" transform="translate(0,0)"/>
<path d="M0 0 C0.33 0.66 0.66 1.32 1 2 C0.34 1.67 -0.32 1.34 -1 1 C-0.67 0.67 -0.34 0.34 0 0 Z " fill="#FFFFFF" transform="translate(230,255)"/>
<path d="M0 0 C0.66 0 1.32 0 2 0 C1.67 0.66 1.34 1.32 1 2 C0.67 1.34 0.34 0.68 0 0 Z " fill="#FFD4FF" transform="translate(188,246)"/>
<path d="M0 0 C0.66 0 1.32 0 2 0 C1.67 0.66 1.34 1.32 1 2 C0.67 1.34 0.34 0.68 0 0 Z " fill="#CDB8FF" transform="translate(177,237)"/>
<path d="M0 0 C0.66 0 1.32 0 2 0 C1.67 0.66 1.34 1.32 1 2 C0.67 1.34 0.34 0.68 0 0 Z " fill="#FFD4FF" transform="translate(196,220)"/>
<path d="M0 0 C3 1 3 1 3 1 Z " fill="#FFD4FF" transform="translate(235,212)"/>
<path d="M0 0 C0.66 0.66 1.32 1.32 2 2 C1.34 2 0.68 2 0 2 C0 1.34 0 0.68 0 0 Z " fill="#E2B8FF" transform="translate(113,208)"/>
<path d="M0 0 C0.33 0.66 0.66 1.32 1 2 C0.34 1.67 -0.32 1.34 -1 1 C-0.67 0.67 -0.34 0.34 0 0 Z " fill="#E2B8FF" transform="translate(231,207)"/>
<path d="M0 0 C0.66 0 1.32 0 2 0 C1.67 0.66 1.34 1.32 1 2 C0.67 1.34 0.34 0.68 0 0 Z " fill="#FFA9FF" transform="translate(116,190)"/>
<path d="M0 0 C0.66 0 1.32 0 2 0 C1.67 0.66 1.34 1.32 1 2 C0.67 1.34 0.34 0.68 0 0 Z " fill="#E2C6FF" transform="translate(12,186)"/>
<path d="M0 0 C0.66 0.66 1.32 1.32 2 2 C1.34 2 0.68 2 0 2 C0 1.34 0 0.68 0 0 Z " fill="#FFD4FF" transform="translate(273,181)"/>
<path d="M0 0 C3 1 3 1 3 1 Z " fill="#D47FFF" transform="translate(226,176)"/>
<path d="M0 0 C0.66 0.66 1.32 1.32 2 2 C1.34 2 0.68 2 0 2 C0 1.34 0 0.68 0 0 Z " fill="#FFFFFF" transform="translate(128,168)"/>
<path d="M0 0 C0.33 0.66 0.66 1.32 1 2 C0.34 1.67 -0.32 1.34 -1 1 C-0.67 0.67 -0.34 0.34 0 0 Z " fill="#FFC6FF" transform="translate(125,162)"/>
<path d="M0 0 C3 1 3 1 3 1 Z " fill="#E9A9FF" transform="translate(93,154)"/>
<path d="M0 0 C0.33 0.66 0.66 1.32 1 2 C0.34 1.67 -0.32 1.34 -1 1 C-0.67 0.67 -0.34 0.34 0 0 Z " fill="#D6BEF2" transform="translate(161,117)"/>
<path d="" fill="#D48DF0" transform="translate(0,0)"/>
<path d="" fill="#E97FFF" transform="translate(0,0)"/>
<path d="M0 0 C0.66 0 1.32 0 2 0 C1.67 0.66 1.34 1.32 1 2 C0.67 1.34 0.34 0.68 0 0 Z " fill="#E2E2FF" transform="translate(73,32)"/>
<path d="M0 0 C0.66 0.66 1.32 1.32 2 2 C1.34 2 0.68 2 0 2 C0 1.34 0 0.68 0 0 Z " fill="#FFFFFF" transform="translate(296,29)"/>
<path d="M0 0 C0.66 0 1.32 0 2 0 C1.67 0.66 1.34 1.32 1 2 C0.67 1.34 0.34 0.68 0 0 Z " fill="#FFB8FF" transform="translate(291,29)"/>
<path d="M0 0 C2 1 2 1 2 1 Z " fill="#FF00FF" transform="translate(49,312)"/>
<path d="M0 0 C2 1 2 1 2 1 Z " fill="#C58CFF" transform="translate(256,308)"/>
<path d="M0 0 C2 1 2 1 2 1 Z " fill="#D494FF" transform="translate(222,290)"/>
<path d="" fill="#BF3FFF" transform="translate(0,0)"/>
<path d="" fill="#FFFFFF" transform="translate(0,0)"/>
<path d="" fill="#9F7FDF" transform="translate(0,0)"/>
<path d="M0 0 C2 1 2 1 2 1 Z " fill="#7F7FFF" transform="translate(45,253)"/>
<path d="" fill="#FFBFFF" transform="translate(0,0)"/>
<path d="" fill="#ECC8FE" transform="translate(0,0)"/>
<path d="M0 0 C2 1 2 1 2 1 Z " fill="#FF00FF" transform="translate(40,246)"/>
<path d="" fill="#FFD4FF" transform="translate(0,0)"/>
<path d="M0 0 C2 1 2 1 2 1 Z " fill="#FFBFFF" transform="translate(267,240)"/>
<path d="" fill="#FFFFFF" transform="translate(0,0)"/>
<path d="" fill="#FFFFFF" transform="translate(0,0)"/>
<path d="M0 0 C2 1 2 1 2 1 Z " fill="#FFBFFF" transform="translate(148,236)"/>
<path d="" fill="#BF3FFF" transform="translate(0,0)"/>
<path d="" fill="#BF3FFF" transform="translate(0,0)"/>
<path d="M0 0 C2 1 2 1 2 1 Z " fill="#FFBFFF" transform="translate(143,231)"/>
<path d="" fill="#FF00FF" transform="translate(0,0)"/>
<path d="" fill="#FFFFFF" transform="translate(0,0)"/>
<path d="" fill="#7F7FFF" transform="translate(0,0)"/>
<path d="" fill="#DFBFFF" transform="translate(0,0)"/>
<path d="" fill="#BF3FFF" transform="translate(0,0)"/>
<path d="M0 0 C2 1 2 1 2 1 Z " fill="#D494FF" transform="translate(143,210)"/>
<path d="M0 0 C2 1 2 1 2 1 Z " fill="#FF7FFF" transform="translate(115,210)"/>
<path d="" fill="#D4D4FF" transform="translate(0,0)"/>
<path d="" fill="#BF3FFF" transform="translate(0,0)"/>
<path d="" fill="#FFD4FF" transform="translate(0,0)"/>
<path d="" fill="#FF00FF" transform="translate(0,0)"/>
<path d="" fill="#DFBFFF" transform="translate(0,0)"/>
<path d="M0 0 C2 1 2 1 2 1 Z " fill="#FFBFFF" transform="translate(120,193)"/>
<path d="M0 0 C2 1 2 1 2 1 Z " fill="#FFBFFF" transform="translate(163,186)"/>
<path d="M0 0 C2 1 2 1 2 1 Z " fill="#FFBFFF" transform="translate(108,186)"/>
<path d="M0 0 C2 1 2 1 2 1 Z " fill="#FFBFFF" transform="translate(184,174)"/>
<path d="M0 0 C2 1 2 1 2 1 Z " fill="#DF7FFF" transform="translate(83,174)"/>
<path d="" fill="#FFBFFF" transform="translate(0,0)"/>
<path d="" fill="#BFBFFF" transform="translate(0,0)"/>
<path d="M0 0 C2 1 2 1 2 1 Z " fill="#FFBFFF" transform="translate(119,155)"/>
<path d="M0 0 C2 1 2 1 2 1 Z " fill="#FFBFFF" transform="translate(100,154)"/>
<path d="" fill="#FFBFFF" transform="translate(0,0)"/>
<path d="" fill="#FFBFFF" transform="translate(0,0)"/>
<path d="" fill="#FF94FF" transform="translate(0,0)"/>
<path d="" fill="#FFFFFF" transform="translate(0,0)"/>
<path d="" fill="#D494FF" transform="translate(0,0)"/>
<path d="" fill="#FFFFFF" transform="translate(0,0)"/>
<path d="M0 0 C2 1 2 1 2 1 Z " fill="#D4D4FF" transform="translate(116,132)"/>
<path d="" fill="#B494FF" transform="translate(0,0)"/>
<path d="" fill="#FF7FFF" transform="translate(0,0)"/>
<path d="M0 0 C2 1 2 1 2 1 Z " fill="#FFFFFF" transform="translate(246,110)"/>
<path d="M0 0 C2 1 2 1 2 1 Z " fill="#FFFFFF" transform="translate(48,107)"/>
<path d="" fill="#D494FF" transform="translate(0,0)"/>
<path d="" fill="#FFFFFF" transform="translate(0,0)"/>
<path d="M0 0 C2 1 2 1 2 1 Z " fill="#FFBFFF" transform="translate(85,98)"/>
<path d="" fill="#FFFFFF" transform="translate(0,0)"/>
<path d="" fill="#FFFFFF" transform="translate(0,0)"/>
<path d="" fill="#D4D4FF" transform="translate(0,0)"/>
<path d="M0 0 C2 1 2 1 2 1 Z " fill="#FFFFFF" transform="translate(28,80)"/>
<path d="M0 0 C2 1 2 1 2 1 Z " fill="#AAAAFF" transform="translate(97,78)"/>
<path d="" fill="#FFBFFF" transform="translate(0,0)"/>
<path d="" fill="#FFBFFF" transform="translate(0,0)"/>
<path d="M0 0 C2 1 2 1 2 1 Z " fill="#FFFFFF" transform="translate(105,64)"/>
<path d="" fill="#FFFFFF" transform="translate(0,0)"/>
<path d="" fill="#FF7FFF" transform="translate(0,0)"/>
<path d="" fill="#FFFFFF" transform="translate(0,0)"/>
<path d="" fill="#FFFFFF" transform="translate(0,0)"/>
<path d="M0 0 C2 1 2 1 2 1 Z " fill="#FFFFFF" transform="translate(280,25)"/>
<path d="" fill="#FF00FF" transform="translate(0,0)"/>
<path d="" fill="#FF00FF" transform="translate(0,0)"/>
<path d="" fill="#FF00FF" transform="translate(0,0)"/>
<path d="" fill="#FF00FF" transform="translate(0,0)"/>
<path d="" fill="#7F7FFF" transform="translate(0,0)"/>
<path d="" fill="#FF00FF" transform="translate(0,0)"/>
<path d="" fill="#7F7FFF" transform="translate(0,0)"/>
<path d="" fill="#AA55AA" transform="translate(0,0)"/>
<path d="" fill="#FF00FF" transform="translate(0,0)"/>
<path d="" fill="#FF00FF" transform="translate(0,0)"/>
<path d="" fill="#AA55AA" transform="translate(0,0)"/>
<path d="" fill="#FFFFFF" transform="translate(0,0)"/>
<path d="" fill="#FFFFFF" transform="translate(0,0)"/>
<path d="" fill="#7F7FFF" transform="translate(0,0)"/>
<path d="" fill="#FFFFFF" transform="translate(0,0)"/>
<path d="" fill="#FFFFFF" transform="translate(0,0)"/>
<path d="" fill="#7F7FFF" transform="translate(0,0)"/>
<path d="" fill="#7F7FFF" transform="translate(0,0)"/>
<path d="" fill="#AAAAFF" transform="translate(0,0)"/>
<path d="" fill="#FFFFFF" transform="translate(0,0)"/>
<path d="" fill="#FFFFFF" transform="translate(0,0)"/>
<path d="" fill="#FF00FF" transform="translate(0,0)"/>
<path d="" fill="#FF00FF" transform="translate(0,0)"/>
<path d="" fill="#FF00FF" transform="translate(0,0)"/>
<path d="" fill="#BF7FFF" transform="translate(0,0)"/>
<path d="" fill="#FFFFFF" transform="translate(0,0)"/>
<path d="" fill="#FF7FFF" transform="translate(0,0)"/>
<path d="" fill="#FF00FF" transform="translate(0,0)"/>
<path d="" fill="#FF00FF" transform="translate(0,0)"/>
<path d="" fill="#FFFFFF" transform="translate(0,0)"/>
<path d="" fill="#FFFFFF" transform="translate(0,0)"/>
<path d="" fill="#FFFFFF" transform="translate(0,0)"/>
<path d="" fill="#FF7FFF" transform="translate(0,0)"/>
<path d="" fill="#FFFFFF" transform="translate(0,0)"/>
<path d="" fill="#FFFFFF" transform="translate(0,0)"/>
<path d="" fill="#FF00FF" transform="translate(0,0)"/>
<path d="" fill="#7F7FFF" transform="translate(0,0)"/>
<path d="" fill="#FFFFFF" transform="translate(0,0)"/>
<path d="" fill="#AAAAFF" transform="translate(0,0)"/>
<path d="" fill="#FF00FF" transform="translate(0,0)"/>
<path d="" fill="#FFFFFF" transform="translate(0,0)"/>
<path d="" fill="#FFFFFF" transform="translate(0,0)"/>
<path d="" fill="#FFFFFF" transform="translate(0,0)"/>
<path d="" fill="#FF00FF" transform="translate(0,0)"/>
<path d="" fill="#FFFFFF" transform="translate(0,0)"/>
<path d="" fill="#FFFFFF" transform="translate(0,0)"/>
<path d="" fill="#FFFFFF" transform="translate(0,0)"/>
<path d="" fill="#FF00FF" transform="translate(0,0)"/>
<path d="" fill="#FFFFFF" transform="translate(0,0)"/>
<path d="" fill="#FFFFFF" transform="translate(0,0)"/>
<path d="" fill="#AAAAFF" transform="translate(0,0)"/>
<path d="" fill="#FF00FF" transform="translate(0,0)"/>
<path d="" fill="#FFFFFF" transform="translate(0,0)"/>
<path d="" fill="#FFFFFF" transform="translate(0,0)"/>
<path d="" fill="#FFFFFF" transform="translate(0,0)"/>
<path d="" fill="#FFFFFF" transform="translate(0,0)"/>
<path d="" fill="#FF7FFF" transform="translate(0,0)"/>
<path d="" fill="#FFFFFF" transform="translate(0,0)"/>
<path d="" fill="#FF7FFF" transform="translate(0,0)"/>
<path d="" fill="#FFFFFF" transform="translate(0,0)"/>
<path d="" fill="#FFFFFF" transform="translate(0,0)"/>
<path d="" fill="#FFFFFF" transform="translate(0,0)"/>
<path d="" fill="#AAAAFF" transform="translate(0,0)"/>
<path d="" fill="#BF7FBF" transform="translate(0,0)"/>
<path d="" fill="#FFFFFF" transform="translate(0,0)"/>
<path d="" fill="#FF7FFF" transform="translate(0,0)"/>
<path d="" fill="#AAAAFF" transform="translate(0,0)"/>
<path d="" fill="#FFFFFF" transform="translate(0,0)"/>
<path d="" fill="#CC99FF" transform="translate(0,0)"/>
<path d="" fill="#FF7FFF" transform="translate(0,0)"/>
<path d="" fill="#FF7FFF" transform="translate(0,0)"/>
<path d="" fill="#FFFFFF" transform="translate(0,0)"/>
<path d="" fill="#AAAAFF" transform="translate(0,0)"/>
<path d="" fill="#FF00FF" transform="translate(0,0)"/>
<path d="" fill="#DF9FFF" transform="translate(0,0)"/>
<path d="" fill="#CC99FF" transform="translate(0,0)"/>
<path d="" fill="#FFFFFF" transform="translate(0,0)"/>
<path d="" fill="#FFFFFF" transform="translate(0,0)"/>
<path d="" fill="#FFFFFF" transform="translate(0,0)"/>
<path d="" fill="#7F7FFF" transform="translate(0,0)"/>
<path d="" fill="#FFFFFF" transform="translate(0,0)"/>
<path d="" fill="#FFFFFF" transform="translate(0,0)"/>
<path d="" fill="#FFBFFF" transform="translate(0,0)"/>
<path d="" fill="#FFFFFF" transform="translate(0,0)"/>
<path d="" fill="#FFAAFF" transform="translate(0,0)"/>
<path d="" fill="#FF7FFF" transform="translate(0,0)"/>
<path d="" fill="#FFFFFF" transform="translate(0,0)"/>
<path d="" fill="#FF7FFF" transform="translate(0,0)"/>
<path d="" fill="#FFFFFF" transform="translate(0,0)"/>
<path d="" fill="#FF00FF" transform="translate(0,0)"/>
<path d="" fill="#FF7FFF" transform="translate(0,0)"/>
<path d="" fill="#FFFFFF" transform="translate(0,0)"/>
<path d="" fill="#FF7FFF" transform="translate(0,0)"/>
<path d="" fill="#FF00FF" transform="translate(0,0)"/>
<path d="" fill="#FFFFFF" transform="translate(0,0)"/>
<path d="" fill="#FFFFFF" transform="translate(0,0)"/>
<path d="" fill="#FF7FFF" transform="translate(0,0)"/>
<path d="" fill="#FF00FF" transform="translate(0,0)"/>
<path d="" fill="#FFAAFF" transform="translate(0,0)"/>
<path d="" fill="#FF7FFF" transform="translate(0,0)"/>
<path d="" fill="#FFFFFF" transform="translate(0,0)"/>
<path d="" fill="#FFFFFF" transform="translate(0,0)"/>
<path d="" fill="#FF00FF" transform="translate(0,0)"/>
<path d="" fill="#FF00FF" transform="translate(0,0)"/>
<path d="" fill="#CC99FF" transform="translate(0,0)"/>
<path d="" fill="#FFFFFF" transform="translate(0,0)"/>
<path d="" fill="#FFFFFF" transform="translate(0,0)"/>
<path d="" fill="#FFFFFF" transform="translate(0,0)"/>
<path d="" fill="#FFAAFF" transform="translate(0,0)"/>
<path d="" fill="#FF00FF" transform="translate(0,0)"/>
<path d="" fill="#FFFFFF" transform="translate(0,0)"/>
<path d="" fill="#FFFFFF" transform="translate(0,0)"/>
<path d="" fill="#7F7FFF" transform="translate(0,0)"/>
<path d="" fill="#AA55FF" transform="translate(0,0)"/>
<path d="" fill="#FFAAFF" transform="translate(0,0)"/>
<path d="" fill="#FFFFFF" transform="translate(0,0)"/>
<path d="" fill="#FFFFFF" transform="translate(0,0)"/>
<path d="" fill="#FFFFFF" transform="translate(0,0)"/>
<path d="" fill="#FF00FF" transform="translate(0,0)"/>
<path d="" fill="#FFFFFF" transform="translate(0,0)"/>
<path d="" fill="#FFFFFF" transform="translate(0,0)"/>
<path d="" fill="#FF7FFF" transform="translate(0,0)"/>
<path d="" fill="#FFFFFF" transform="translate(0,0)"/>
<path d="" fill="#FF00FF" transform="translate(0,0)"/>
<path d="" fill="#FFFFFF" transform="translate(0,0)"/>
<path d="" fill="#FF7FFF" transform="translate(0,0)"/>
<path d="" fill="#FFFFFF" transform="translate(0,0)"/>
<path d="" fill="#FF00FF" transform="translate(0,0)"/>
<path d="" fill="#FF00FF" transform="translate(0,0)"/>
<path d="" fill="#FFFFFF" transform="translate(0,0)"/>
<path d="" fill="#FFFFFF" transform="translate(0,0)"/>
<path d="" fill="#FF00FF" transform="translate(0,0)"/>
<path d="" fill="#FF00FF" transform="translate(0,0)"/>
<path d="" fill="#FFFFFF" transform="translate(0,0)"/>
<path d="" fill="#FF00FF" transform="translate(0,0)"/>
<path d="" fill="#AAAAFF" transform="translate(0,0)"/>
<path d="" fill="#7F7FFF" transform="translate(0,0)"/>
<path d="" fill="#FFFFFF" transform="translate(0,0)"/>
<path d="" fill="#FF7FFF" transform="translate(0,0)"/>
<path d="" fill="#FFFFFF" transform="translate(0,0)"/>
<path d="" fill="#7F7FFF" transform="translate(0,0)"/>
<path d="" fill="#FF7FFF" transform="translate(0,0)"/>
<path d="" fill="#FF7FFF" transform="translate(0,0)"/>
<path d="" fill="#FFFFFF" transform="translate(0,0)"/>
<path d="" fill="#FFFFFF" transform="translate(0,0)"/>
<path d="" fill="#7F7FFF" transform="translate(0,0)"/>
<path d="" fill="#7F7FFF" transform="translate(0,0)"/>
<path d="" fill="#FFFFFF" transform="translate(0,0)"/>
<path d="" fill="#FFFFFF" transform="translate(0,0)"/>
<path d="" fill="#FFFFFF" transform="translate(0,0)"/>
<path d="" fill="#FFFFFF" transform="translate(0,0)"/>
<path d="" fill="#FF7FFF" transform="translate(0,0)"/>
<path d="" fill="#FF7FFF" transform="translate(0,0)"/>
<path d="" fill="#AAAAFF" transform="translate(0,0)"/>
<path d="" fill="#FFFFFF" transform="translate(0,0)"/>
<path d="" fill="#FFFFFF" transform="translate(0,0)"/>
<path d="" fill="#FF7FFF" transform="translate(0,0)"/>
<path d="" fill="#AA55FF" transform="translate(0,0)"/>
<path d="" fill="#FF00FF" transform="translate(0,0)"/>
<path d="" fill="#AAAAFF" transform="translate(0,0)"/>
<path d="" fill="#FFFFFF" transform="translate(0,0)"/>
<path d="" fill="#FF00FF" transform="translate(0,0)"/>
<path d="" fill="#7F7FFF" transform="translate(0,0)"/>
<path d="" fill="#FFFFFF" transform="translate(0,0)"/>
<path d="" fill="#FF00FF" transform="translate(0,0)"/>
<path d="" fill="#FF7FFF" transform="translate(0,0)"/>
<path d="" fill="#7F7FFF" transform="translate(0,0)"/>
<path d="" fill="#FFFFFF" transform="translate(0,0)"/>
<path d="" fill="#FFFFFF" transform="translate(0,0)"/>
<path d="" fill="#7F7FFF" transform="translate(0,0)"/>
<path d="" fill="#FF7FFF" transform="translate(0,0)"/>
<path d="" fill="#AAAAFF" transform="translate(0,0)"/>
<path d="" fill="#7F7FFF" transform="translate(0,0)"/>
<path d="" fill="#FF7FFF" transform="translate(0,0)"/>
<path d="" fill="#FFFFFF" transform="translate(0,0)"/>
<path d="" fill="#FF7FFF" transform="translate(0,0)"/>
<path d="" fill="#FF7FFF" transform="translate(0,0)"/>
<path d="" fill="#FFFFFF" transform="translate(0,0)"/>
<path d="" fill="#FF7FFF" transform="translate(0,0)"/>
<path d="" fill="#FFFFFF" transform="translate(0,0)"/>
<path d="" fill="#FFFFFF" transform="translate(0,0)"/>
<path d="" fill="#FFFFFF" transform="translate(0,0)"/>
<path d="" fill="#FF00FF" transform="translate(0,0)"/>
<path d="" fill="#FF7FFF" transform="translate(0,0)"/>
<path d="" fill="#FFFFFF" transform="translate(0,0)"/>
<path d="" fill="#FF00FF" transform="translate(0,0)"/>
<path d="" fill="#AAAAFF" transform="translate(0,0)"/>
<path d="" fill="#FFFFFF" transform="translate(0,0)"/>
<path d="" fill="#FFFFFF" transform="translate(0,0)"/>
<path d="" fill="#BF7FBF" transform="translate(0,0)"/>
<path d="" fill="#AAAAFF" transform="translate(0,0)"/>
<path d="" fill="#7F7FFF" transform="translate(0,0)"/>
<path d="" fill="#FFFFFF" transform="translate(0,0)"/>
<path d="" fill="#7F7FFF" transform="translate(0,0)"/>
<path d="" fill="#FFFFFF" transform="translate(0,0)"/>
<path d="" fill="#FF7FFF" transform="translate(0,0)"/>
<path d="" fill="#FF7FFF" transform="translate(0,0)"/>
<path d="" fill="#FFFFFF" transform="translate(0,0)"/>
<path d="" fill="#FFFFFF" transform="translate(0,0)"/>
<path d="" fill="#FFFFFF" transform="translate(0,0)"/>
<path d="" fill="#FF7FFF" transform="translate(0,0)"/>
<path d="" fill="#FFFFFF" transform="translate(0,0)"/>
<path d="" fill="#FFAAFF" transform="translate(0,0)"/>
<path d="" fill="#FFFFFF" transform="translate(0,0)"/>
<path d="" fill="#FFFFFF" transform="translate(0,0)"/>
<path d="" fill="#FF7FFF" transform="translate(0,0)"/>
<path d="" fill="#FF7FFF" transform="translate(0,0)"/>
<path d="" fill="#FFFFFF" transform="translate(0,0)"/>
<path d="" fill="#FF7FFF" transform="translate(0,0)"/>
<path d="" fill="#CC99FF" transform="translate(0,0)"/>
<path d="" fill="#FFFFFF" transform="translate(0,0)"/>
<path d="" fill="#FFFFFF" transform="translate(0,0)"/>
<path d="" fill="#FFFFFF" transform="translate(0,0)"/>
<path d="" fill="#FF7FFF" transform="translate(0,0)"/>
<path d="" fill="#BF7FBF" transform="translate(0,0)"/>
<path d="" fill="#FFFFFF" transform="translate(0,0)"/>
<path d="" fill="#AAAAFF" transform="translate(0,0)"/>
<path d="" fill="#FFFFFF" transform="translate(0,0)"/>
<path d="" fill="#7F7FFF" transform="translate(0,0)"/>
<path d="" fill="#FF7FFF" transform="translate(0,0)"/>
<path d="" fill="#FFFFFF" transform="translate(0,0)"/>
<path d="" fill="#7F7FFF" transform="translate(0,0)"/>
<path d="" fill="#7F7FFF" transform="translate(0,0)"/>
<path d="" fill="#FFFFFF" transform="translate(0,0)"/>
<path d="" fill="#FFFFFF" transform="translate(0,0)"/>
<path d="" fill="#7F7FFF" transform="translate(0,0)"/>
<path d="" fill="#FFFFFF" transform="translate(0,0)"/>
<path d="" fill="#FFFFFF" transform="translate(0,0)"/>
<path d="" fill="#CC99CC" transform="translate(0,0)"/>
<path d="" fill="#7F7FFF" transform="translate(0,0)"/>
<path d="" fill="#FF00FF" transform="translate(0,0)"/>
<path d="" fill="#FFAAFF" transform="translate(0,0)"/>
<path d="" fill="#FFFFFF" transform="translate(0,0)"/>
<path d="" fill="#AAAAFF" transform="translate(0,0)"/>
<path d="" fill="#FFFFFF" transform="translate(0,0)"/>
<path d="" fill="#AAAAFF" transform="translate(0,0)"/>
<path d="" fill="#FFFFFF" transform="translate(0,0)"/>
<path d="" fill="#FF00FF" transform="translate(0,0)"/>
<path d="" fill="#FF00FF" transform="translate(0,0)"/>
<path d="" fill="#FFFFFF" transform="translate(0,0)"/>
<path d="" fill="#FF00FF" transform="translate(0,0)"/>
<path d="" fill="#FF7FFF" transform="translate(0,0)"/>
<path d="" fill="#FFFFFF" transform="translate(0,0)"/>
<path d="" fill="#FF7FFF" transform="translate(0,0)"/>
<path d="" fill="#FFFFFF" transform="translate(0,0)"/>
<path d="" fill="#FFFFFF" transform="translate(0,0)"/>
<path d="" fill="#FFFFFF" transform="translate(0,0)"/>
<path d="" fill="#FFFFFF" transform="translate(0,0)"/>
<path d="" fill="#7F7FFF" transform="translate(0,0)"/>
<path d="" fill="#FF7FFF" transform="translate(0,0)"/>
<path d="" fill="#FFFFFF" transform="translate(0,0)"/>
<path d="" fill="#FFFFFF" transform="translate(0,0)"/>
<path d="" fill="#FFFFFF" transform="translate(0,0)"/>
<path d="" fill="#7F7FFF" transform="translate(0,0)"/>
<path d="" fill="#FFFFFF" transform="translate(0,0)"/>
<path d="" fill="#7F7FFF" transform="translate(0,0)"/>
<path d="" fill="#7F7FFF" transform="translate(0,0)"/>
<path d="" fill="#7F7FFF" transform="translate(0,0)"/>
<path d="" fill="#FFFFFF" transform="translate(0,0)"/>
<path d="" fill="#FFFFFF" transform="translate(0,0)"/>
<path d="" fill="#BF7FFF" transform="translate(0,0)"/>
<path d="" fill="#FF00FF" transform="translate(0,0)"/>
<path d="" fill="#FF7FFF" transform="translate(0,0)"/>
<path d="" fill="#BF7FFF" transform="translate(0,0)"/>
<path d="" fill="#FFFFFF" transform="translate(0,0)"/>
<path d="" fill="#FFFFFF" transform="translate(0,0)"/>
<path d="" fill="#FFFFFF" transform="translate(0,0)"/>
<path d="" fill="#BF7FBF" transform="translate(0,0)"/>
<path d="" fill="#FFFFFF" transform="translate(0,0)"/>
<path d="" fill="#FFFFFF" transform="translate(0,0)"/>
<path d="" fill="#FFFFFF" transform="translate(0,0)"/>
<path d="" fill="#FFFFFF" transform="translate(0,0)"/>
<path d="" fill="#FFFFFF" transform="translate(0,0)"/>
<path d="" fill="#FF7FFF" transform="translate(0,0)"/>
<path d="" fill="#FF7FFF" transform="translate(0,0)"/>
<path d="" fill="#FFFFFF" transform="translate(0,0)"/>
<path d="" fill="#FF7FFF" transform="translate(0,0)"/>
<path d="" fill="#FFFFFF" transform="translate(0,0)"/>
<path d="" fill="#FF7FFF" transform="translate(0,0)"/>
<path d="" fill="#FFFFFF" transform="translate(0,0)"/>
<path d="" fill="#FF7FFF" transform="translate(0,0)"/>
<path d="" fill="#CC99FF" transform="translate(0,0)"/>
<path d="" fill="#FF7FFF" transform="translate(0,0)"/>
<path d="" fill="#FFAAFF" transform="translate(0,0)"/>
<path d="" fill="#FFFFFF" transform="translate(0,0)"/>
<path d="" fill="#FF00FF" transform="translate(0,0)"/>
<path d="" fill="#FFFFFF" transform="translate(0,0)"/>
<path d="" fill="#FFFFFF" transform="translate(0,0)"/>
<path d="" fill="#FFFFFF" transform="translate(0,0)"/>
<path d="" fill="#FF7FFF" transform="translate(0,0)"/>
<path d="" fill="#FF7FFF" transform="translate(0,0)"/>
<path d="" fill="#FF7FFF" transform="translate(0,0)"/>
<path d="" fill="#FFFFFF" transform="translate(0,0)"/>
<path d="" fill="#FFFFFF" transform="translate(0,0)"/>
<path d="" fill="#FFAAFF" transform="translate(0,0)"/>
<path d="" fill="#FFFFFF" transform="translate(0,0)"/>
<path d="" fill="#FFFFFF" transform="translate(0,0)"/>
<path d="" fill="#FFFFFF" transform="translate(0,0)"/>
<path d="" fill="#FFFFFF" transform="translate(0,0)"/>
<path d="" fill="#FFFFFF" transform="translate(0,0)"/>
<path d="" fill="#FFFFFF" transform="translate(0,0)"/>
<path d="" fill="#AAAAFF" transform="translate(0,0)"/>
<path d="" fill="#FFFFFF" transform="translate(0,0)"/>
<path d="" fill="#FF7FFF" transform="translate(0,0)"/>
<path d="" fill="#FF7FFF" transform="translate(0,0)"/>
<path d="" fill="#FF7FFF" transform="translate(0,0)"/>
<path d="" fill="#D47FFF" transform="translate(0,0)"/>
<path d="" fill="#AAAAFF" transform="translate(0,0)"/>
<path d="" fill="#FFFFFF" transform="translate(0,0)"/>
<path d="" fill="#FFFFFF" transform="translate(0,0)"/>
<path d="" fill="#AAAAFF" transform="translate(0,0)"/>
<path d="" fill="#FFFFFF" transform="translate(0,0)"/>
<path d="" fill="#FFFFFF" transform="translate(0,0)"/>
<path d="" fill="#FF7FFF" transform="translate(0,0)"/>
<path d="" fill="#FFFFFF" transform="translate(0,0)"/>
<path d="" fill="#FFFFFF" transform="translate(0,0)"/>
<path d="" fill="#FF7FFF" transform="translate(0,0)"/>
<path d="" fill="#FF00FF" transform="translate(0,0)"/>
<path d="" fill="#CC99FF" transform="translate(0,0)"/>
<path d="" fill="#FFFFFF" transform="translate(0,0)"/>
<path d="" fill="#FFFFFF" transform="translate(0,0)"/>
<path d="" fill="#D47FD4" transform="translate(0,0)"/>
<path d="" fill="#FFFFFF" transform="translate(0,0)"/>
<path d="" fill="#FFFFFF" transform="translate(0,0)"/>
<path d="" fill="#FF7FFF" transform="translate(0,0)"/>
<path d="" fill="#BF7FFF" transform="translate(0,0)"/>
<path d="" fill="#FFFFFF" transform="translate(0,0)"/>
<path d="" fill="#FFFFFF" transform="translate(0,0)"/>
<path d="" fill="#FFFFFF" transform="translate(0,0)"/>
<path d="" fill="#FFFFFF" transform="translate(0,0)"/>
<path d="" fill="#AAAAFF" transform="translate(0,0)"/>
<path d="" fill="#FFFFFF" transform="translate(0,0)"/>
<path d="" fill="#FFFFFF" transform="translate(0,0)"/>
<path d="" fill="#FF7FFF" transform="translate(0,0)"/>
<path d="" fill="#FFFFFF" transform="translate(0,0)"/>
<path d="" fill="#AAAAFF" transform="translate(0,0)"/>
<path d="" fill="#FFFFFF" transform="translate(0,0)"/>
<path d="" fill="#FFFFFF" transform="translate(0,0)"/>
<path d="" fill="#FF7FFF" transform="translate(0,0)"/>
<path d="" fill="#FFFFFF" transform="translate(0,0)"/>
<path d="" fill="#FF7FFF" transform="translate(0,0)"/>
<path d="" fill="#AAAAFF" transform="translate(0,0)"/>
<path d="" fill="#FF7FFF" transform="translate(0,0)"/>
<path d="" fill="#FF7FFF" transform="translate(0,0)"/>
<path d="" fill="#FFFFFF" transform="translate(0,0)"/>
<path d="" fill="#FF7FFF" transform="translate(0,0)"/>
<path d="" fill="#FF7FFF" transform="translate(0,0)"/>
<path d="" fill="#DA91DA" transform="translate(0,0)"/>
<path d="" fill="#FFFFFF" transform="translate(0,0)"/>
<path d="" fill="#FFFFFF" transform="translate(0,0)"/>
<path d="" fill="#FF7FFF" transform="translate(0,0)"/>
<path d="" fill="#FF7FFF" transform="translate(0,0)"/>
<path d="" fill="#FFFFFF" transform="translate(0,0)"/>
<path d="" fill="#AAAAFF" transform="translate(0,0)"/>
<path d="" fill="#FFFFFF" transform="translate(0,0)"/>
<path d="" fill="#FFFFFF" transform="translate(0,0)"/>
<path d="" fill="#FFFFFF" transform="translate(0,0)"/>
<path d="" fill="#AAAAFF" transform="translate(0,0)"/>
<path d="" fill="#FFFFFF" transform="translate(0,0)"/>
<path d="" fill="#FF7FFF" transform="translate(0,0)"/>
<path d="" fill="#FFFFFF" transform="translate(0,0)"/>
<path d="" fill="#FFFFFF" transform="translate(0,0)"/>
<path d="" fill="#FFFFFF" transform="translate(0,0)"/>
<path d="" fill="#FFFFFF" transform="translate(0,0)"/>
<path d="" fill="#FFFFFF" transform="translate(0,0)"/>
<path d="" fill="#FFFFFF" transform="translate(0,0)"/>
<path d="" fill="#FFFFFF" transform="translate(0,0)"/>
<path d="" fill="#FFFFFF" transform="translate(0,0)"/>
<path d="" fill="#FFFFFF" transform="translate(0,0)"/>
<path d="" fill="#AAAAFF" transform="translate(0,0)"/>
<path d="" fill="#FFFFFF" transform="translate(0,0)"/>
<path d="" fill="#FFFFFF" transform="translate(0,0)"/>
<path d="" fill="#FF7FFF" transform="translate(0,0)"/>
<path d="" fill="#FFFFFF" transform="translate(0,0)"/>
<path d="" fill="#FFFFFF" transform="translate(0,0)"/>
<path d="" fill="#FFFFFF" transform="translate(0,0)"/>
<path d="" fill="#FFFFFF" transform="translate(0,0)"/>
<path d="" fill="#FFFFFF" transform="translate(0,0)"/>
<path d="" fill="#AAAAFF" transform="translate(0,0)"/>
<path d="" fill="#BF7FFF" transform="translate(0,0)"/>
<path d="" fill="#FFAAFF" transform="translate(0,0)"/>
<path d="" fill="#FFFFFF" transform="translate(0,0)"/>
<path d="" fill="#FF7FFF" transform="translate(0,0)"/>
<path d="" fill="#FFFFFF" transform="translate(0,0)"/>
<path d="" fill="#FFFFFF" transform="translate(0,0)"/>
<path d="" fill="#FFFFFF" transform="translate(0,0)"/>
<path d="" fill="#FF7FFF" transform="translate(0,0)"/>
<path d="" fill="#BF7FBF" transform="translate(0,0)"/>
<path d="" fill="#FF7FFF" transform="translate(0,0)"/>
<path d="" fill="#FFFFFF" transform="translate(0,0)"/>
<path d="" fill="#FFFFFF" transform="translate(0,0)"/>
<path d="" fill="#FFFFFF" transform="translate(0,0)"/>
<path d="" fill="#FFFFFF" transform="translate(0,0)"/>
<path d="" fill="#BF7FFF" transform="translate(0,0)"/>
<path d="" fill="#FFFFFF" transform="translate(0,0)"/>
<path d="" fill="#FFFFFF" transform="translate(0,0)"/>
<path d="" fill="#FF7FFF" transform="translate(0,0)"/>
<path d="" fill="#AAAAFF" transform="translate(0,0)"/>
<path d="" fill="#FFFFFF" transform="translate(0,0)"/>
<path d="" fill="#FFFFFF" transform="translate(0,0)"/>
<path d="" fill="#FFFFFF" transform="translate(0,0)"/>
<path d="" fill="#FFFFFF" transform="translate(0,0)"/>
<path d="" fill="#FFFFFF" transform="translate(0,0)"/>
<path d="" fill="#FFFFFF" transform="translate(0,0)"/>
<path d="" fill="#AAAAFF" transform="translate(0,0)"/>
<path d="" fill="#FFFFFF" transform="translate(0,0)"/>
<path d="" fill="#FFFFFF" transform="translate(0,0)"/>
<path d="" fill="#FF7FFF" transform="translate(0,0)"/>
<path d="" fill="#FF7FFF" transform="translate(0,0)"/>
<path d="" fill="#FFFFFF" transform="translate(0,0)"/>
<path d="" fill="#CC99FF" transform="translate(0,0)"/>
<path d="" fill="#FFFFFF" transform="translate(0,0)"/>
<path d="" fill="#FFFFFF" transform="translate(0,0)"/>
<path d="" fill="#FF7FFF" transform="translate(0,0)"/>
<path d="" fill="#FFFFFF" transform="translate(0,0)"/>
<path d="" fill="#AAAAFF" transform="translate(0,0)"/>
<path d="" fill="#BFBFFF" transform="translate(0,0)"/>
<path d="" fill="#FFFFFF" transform="translate(0,0)"/>
<path d="" fill="#FFFFFF" transform="translate(0,0)"/>
<path d="" fill="#FF7FFF" transform="translate(0,0)"/>
<path d="" fill="#FFFFFF" transform="translate(0,0)"/>
<path d="" fill="#FFFFFF" transform="translate(0,0)"/>
<path d="" fill="#FF7FFF" transform="translate(0,0)"/>
<path d="" fill="#BF7FFF" transform="translate(0,0)"/>
<path d="" fill="#FF7FFF" transform="translate(0,0)"/>
<path d="" fill="#FFFFFF" transform="translate(0,0)"/>
<path d="" fill="#FFFFFF" transform="translate(0,0)"/>
</svg>
